/* XPM */
static char *_3630f6691e64934fdde715de1946ce5aHVHkvQYwcSxozOu[] = {
/* columns rows colors chars-per-pixel */
"64 64 228 2 ",
"   c #141E33",
".  c #171F37",
"X  c #19232D",
"o  c #162135",
"O  c #1B2435",
"+  c #1E2836",
"@  c #172239",
"#  c #1B253B",
"$  c #1E2A3C",
"%  c #222B36",
"&  c #222B3D",
"*  c #20253B",
"=  c #24323D",
"-  c #1D2542",
";  c #1E2A43",
":  c #1C274A",
">  c #1F3044",
",  c #222C43",
"<  c #232D4A",
"1  c #282F4B",
"2  c #262A43",
"3  c #253244",
"4  c #2A3346",
"5  c #2D3945",
"6  c #26324B",
"7  c #2A354C",
"8  c #2D394D",
"9  c #323B4D",
"0  c #31374D",
"q  c #263252",
"w  c #2B3552",
"e  c #2E3A53",
"r  c #2D3B5B",
"t  c #273759",
"y  c #323C54",
"u  c #323D5A",
"i  c #303751",
"p  c #262F56",
"a  c #313F61",
"s  c #2A3660",
"d  c #36434D",
"f  c #354155",
"g  c #394455",
"h  c #35425B",
"j  c #3A445D",
"k  c #3C495E",
"l  c #354362",
"z  c #3A4562",
"x  c #3D4B64",
"c  c #3E4C69",
"v  c #394469",
"b  c #3F5065",
"n  c #374574",
"m  c #414B5E",
"M  c #424D53",
"N  c #44525D",
"B  c #414D65",
"V  c #424E6A",
"C  c #404764",
"Z  c #435266",
"A  c #495366",
"S  c #44536B",
"D  c #49556D",
"F  c #45586C",
"G  c #49596E",
"H  c #434E73",
"J  c #465571",
"K  c #495672",
"L  c #475973",
"P  c #4B5A74",
"I  c #4D5D7A",
"U  c #445379",
"Y  c #515D75",
"T  c #535E79",
"R  c #545B77",
"E  c #515B67",
"W  c #4E617A",
"Q  c #546176",
"!  c #54647D",
"~  c #58657D",
"^  c #56697D",
"/  c #5A6B7E",
"(  c #596374",
")  c #5B717E",
"_  c #60707D",
"`  c #515F88",
"'  c #4E6184",
"]  c #566682",
"[  c #5A6682",
"{  c #566984",
"}  c #5B6B84",
"|  c #55648A",
" . c #576A8A",
".. c #5C6D8B",
"X. c #5E7185",
"o. c #5E718B",
"O. c #5D6D93",
"+. c #5D6E99",
"@. c #566C95",
"#. c #5E7292",
"$. c #5F739A",
"%. c #616F8B",
"&. c #606D86",
"*. c #607285",
"=. c #62738C",
"-. c #69758C",
";. c #636F92",
":. c #606E9B",
">. c #637493",
",. c #697593",
"<. c #667994",
"1. c #6A7B95",
"2. c #63749B",
"3. c #65799B",
"4. c #6B7B9B",
"5. c #69779C",
"6. c #737D9B",
"7. c #5E74A3",
"8. c #6375A2",
"9. c #6579A3",
"0. c #6D7DA2",
"q. c #6C7DAA",
"w. c #6878A5",
"e. c #707DA3",
"r. c #737FB1",
"t. c #6E819D",
"y. c #74839C",
"u. c #6E82A4",
"i. c #6E80AE",
"p. c #7384A4",
"a. c #7984A2",
"s. c #7689A4",
"d. c #7B89A3",
"f. c #7484AC",
"g. c #7B86AC",
"h. c #7689AB",
"j. c #7A8BAC",
"k. c #7385B2",
"l. c #768AB4",
"z. c #7B8CB4",
"x. c #7386BA",
"c. c #768BBB",
"v. c #7B8CBC",
"b. c #7A87B6",
"n. c #7F91B6",
"m. c #7D92BB",
"M. c #7B8EC3",
"N. c #7A8EC9",
"B. c #7588C3",
"V. c #7D91C3",
"C. c #7F94CD",
"Z. c #828DAC",
"A. c #8494AD",
"S. c #818CB6",
"D. c #8393B5",
"F. c #8394BC",
"G. c #8A96BA",
"H. c #8699BB",
"J. c #8B9ABD",
"K. c #8898B5",
"L. c #9CA7BB",
"P. c #808FCA",
"I. c #818FC0",
"U. c #8294C3",
"Y. c #8699C5",
"T. c #8B9BC5",
"R. c #8395CA",
"E. c #859BCC",
"W. c #8C9DCA",
"Q. c #8996C7",
"!. c #919EC7",
"~. c #8495D2",
"^. c #8A9DD3",
"/. c #8A9CD6",
"(. c #929ED0",
"). c #8DA0C7",
"_. c #8DA1CC",
"`. c #93A2C4",
"'. c #94A3CD",
"]. c #9CA8C9",
"[. c #8DA2D3",
"{. c #8EA3DC",
"}. c #92A3D4",
"|. c #9DABD3",
" X c #92A5DB",
".X c #9CACDD",
"XX c #97A7DA",
"oX c #9EB1DA",
"OX c #A4AFC9",
"+X c #A6B2CF",
"@X c #A5B3D4",
"#X c #ACB5D4",
"$X c #AEBAD3",
"%X c #AEBCDF",
"&X c #B4BEDA",
"*X c #A2AFDC",
"=X c #95A8E3",
"-X c #ADBDE1",
";X c #A2B5E6",
":X c #A9B6E5",
">X c #AEC1DE",
",X c #B5C3DC",
"<X c #BAC5DE",
"1X c #B7C5D6",
"2X c #B2C2CF",
"3X c #B5C3E3",
"4X c #B9C5E4",
"5X c #B3C8E2",
"6X c #BBCAE5",
"7X c #B5C4EB",
"8X c #BAC7EB",
"9X c #BCCBEB",
"0X c #B5C9EC",
"qX c #BCD1EC",
"wX c #BDCDF3",
"eX c #B7C8F5",
"rX c #BED2F5",
"tX c #C2CDE4",
"yX c #C2CEEA",
"uX c #C5D2ED",
"iX c #C9D8EF",
"pX c #C1CEF2",
"aX c #C0CDF9",
"sX c #C4D4F3",
"dX c #C5D3FE",
"fX c #CDDAFC",
"gX c #CAD6F6",
"hX c #D5E3FB",
/* pixels */
"{ o.o.X.[ S O 5 8Xz...=.} =.>...p.#.X.o.=.} B 8 , , =.X.....I *.&.I ..>. .>...[ >.o.o.} F } =.[ F F S y w g.4X<.X.o.s.h.>.{ >.=.",
"=.{ X.{ Y A # 2 p.1.{ &.=.! ..<.>.{ o.{ F F j 3 7 D [ >. .&...} ..[ 1.p.=.=.} W ! X...X.J ..{ P S Z m 6 q p.4...o. .>...o.<.{ [ ",
" .X.L &.A V w 1 ! I } =.} I =...X...=.{ I L V   ; D Z =.>.} J R =.&.[ ..L ! =.} P X.=.} Z ~ P Z F k x , < V &...F X...J } &.L *.",
">.V S D B i - 2 Z Z %...S S ~ } L } S F V V a B h Z S S F L z K F L Z L Z I ] G Z ! } L c J F J x x B ; < S Z ~ L ..I ! ..F S } ",
"V D Z Z 4 5 C 7 d x S K D P G S x G F Z B q I &Xf 7 L G S x B B k x x V J K ~ L S J S x V V c x x y h i z g A P K Z B I P Z P S ",
"8 y 7 & O h 4X6.6 e 7 B B B A 8 , 4 4 4 1 a Z.} h u w 1 7 < u j j r z l V x P S V x v x B B w i e x #XB L.k h k h j k h h x z x ",
"& , 7 < 1 e z z w @ ; 8 # & 7 < ; , 5 ~ < z >.y h L y k # $ 6 y h 3 w u B V S V V j y u y 7 & & $ } a.< O = 2 , & & $ $ 6 , < r ",
"f D 6X9XG.|.8X4Xg.z g 4 g A y S , 4 ( h 1 a c z z j Y 2Xk 3 7 T yXj.R u i u h S B 3 *   & & O X $ j V u 8 9 & & O & + & 7 ~ ,.u ",
"[.>XT.~.[.0XE.[.wX XdXeX`.1X[ #XI 5 8 X l T.}.eXuX5X_..XM.v.qX,XY.l.#.3.t q a.j 2 # & 9 l z k 7 n k.8XyX<X<XgXV l n.L B 9 3 4 8 ",
"#._.).v.B.Y.)./.F.v.v.}...3Xd...r.a : , T.wXE.F.m.E.c.V./.R.z.G.m.$.' ' j.v P 6 r t s.5X'.eXsXS.W.F.m.U.W.!.4XZ.m.qX1.N & @ e 4X",
"#.c.}.9.c.V.c.C.f.p.x.p.<.O...l.;Xg.: u S.2.v.S.m.c.7.c.=Xc.2.O.c.n.u.>.d.c h y [.{.R.v.~.~.x.~.sXU.x.B. X X$.I u.>./ G y < a '.",
"..2.[.#.o.V./.3.f.{ +.<.p.2.o.2.F.$Xw g -Xd.-X<.f.i.$.j.$.....=.n.$.3...I 4.3 g qX'.5XK.l.f.t.T.<.s.8.M.M.v.v.f.o.L S A 6 < #XG.",
"X.=.$.#.X.0.v. ...3.o.h.#.#.z...=.2X$ = T.X.4.[ 3...o.X...s...*.$.o...! F P $ y l.m.2.o.W.q.h.l...p...j.$. .j.5.#...K B 1 y ,X4.",
"_ j.} ^ <.t.o.3.3.U.X.] O.=.f...I 2Xe y z.2.l.%.2. .=...,.>.} =.h.#.=.L L V 6 9 j.2.} =.2. .&.>.<.4X1.^ =.X.>...f.[ K B , k ~ 1.",
"=. .=.=...o.^ l.m. .F } >.} L [ J A S ; b.O.+.=.H.<...2.s.O.,...2.} ^ F S B B k h.w.] =.k.2.,.k.4.=.X.*.X.=.~ =...F F G i ( 6.6X",
";.} X.O.X.*.o.2.k...%./ =.{ F [ A D V y k.X.X.) #.{ =...o.o...} [ W X.b D S 1 w J  .*._ ,.I ^ o...h.#.o.{ P X.*.} Z A # 8 } P =.",
"..P } ..} %.J } o.>.} L } F S D D x S w h *...X.} [ I X.{ ..I / D D ! I x B 3 4 S P } ..=.[ &.D [ =. .p.Q &.} O.D A A & e S x X.",
"[ ^ J } =.] G Z } } b S L J K V V S z 7   D .. .%.F [ 1...L } &.} ! L J x D ; ; Z m F Z S } } F b L K ../ } G J Z S Z > < S ! { ",
"P Z S S D P F Z F Z S F Z S U H z V B < m B K >.] L ..[ ~ F P B Z L B v x S $ < 7 b G Z S Z F S K J S V P G S V S F h e 3 b z S ",
"Z S S V S k S D Z k S V V x B B S z u z <XY B V S F Z F F F V D k x c V V e 8 -.j e x S L J K S V h c V S x S P c c f t.j # 7 D ",
"i x h , 4 S j A V V c x x h m B A w [ 6.y 3 A D K F B S z F B j Z k k 6 y 1 R L.[ i u C z S z i z z V B B S A B k x z K ; # # y ",
"y $Xy.j # @ @ < q z z z 8 , 7 ; o u J J j @ 7 8 B B j x B h z ] h 8 8 o * @ h I P A   % 7 i 0 = h y 7 e z j z k A < 1 c H z K Q ",
"e e 7 Y R u h u 1 u &.w @ ; y y x I 8XpX`.x 7 ; 5 , & 7 y ; P @Xt 6 4 =   A G.7XyX4X~ 7 e @ + 0 K , O 8 w w V 2 9 S I !.7X|.7XU ",
"y h e z yXhXgX].i j tXB - x Z.gXuXF.'.T.fXgXK.< 8 4 2 , @ z =.j.b.;.y 8 m tXgXT.I.U.wX].S.H q u B , 3 # w Z.4Xz B gXsXU.V.V.^.m.",
"Z >XwXW.M.R.'.eXD 4 M ` l x.m.~.V.E. XM.wXU.R.N.6X5Xs.c J w j Q u y a b.9XsX^.V.{.N.V.3.#.-XD.f.1X4XS.s 7 } V z ~.XXC.c.{.C.[.7.",
"F.Q.Q.U.T.}.W.z.< < X 6.c XX).N.M.E.k.z.U.I.x.^.R.Y.I.W.U.n - - % & f. XF.F.^.}. XoXn.h.K.2.8.2.P ..e.a , y w S.E.V.C._.{.c.V.l.",
"wXl.z.v.eXN.R.N.] q & q u -X2.E.c.2.<.h.+.c.m.$.W.i.Y.8Xj.;.; & % Z f.R.+.b.Q.x.f.0XH. .j.2.k.z.=.s.L ,.7   q -X[.l.V.).B.c.V.$.",
"f.u.h.3.T.8.x. Xl.B % 1 z s.<.c.3.p.} =.2.z.#.j.=.=.{ >.=.F = X - <X4.0.....k.N.2.#.o..... .2.f.L c P P y y u k.9.m.k.#.C.h.$.j.",
"C.x.l.#.>.o.<.o.Y.Z + 7 Z.=.#.k.>.......=...;.z.1.u.o.{ O.4.u @ w K.3...1.>...2.l.<.{ ..o.X.o.=.=. .L B -.1 r S.f.#.$.o.l.3.$.s.",
"k.2.h.o.o.^ *./ @.F 2 & 3X-.| 3._ ..0.>.} =. .;...o.o...O.| ,.< # p.#.#.G.<.) X.j. .<.p.>.o.X.^ } P S P S 2 - I j.X.$.o.j.o.O.X.",
"..=.<...{ 1.] I V N 3 3 f.=.#.f.X.<.K.{ =.>.=...X.X.} X.W L k + % q.$...O...) <.<.o.#.} } o...=.=.^ / S S j ; 6  .o.0.-.q.o.O.=.",
"o...s.o.<.W S b S g # < f.X...>.O...X.o.#.H...=.=.W F X.G S m + $ e.=./ =...o.x.o.X.^ =.o.>...S } o.X.S Z z = $ o.X.,.=.O.>.p.-.",
"o.X.=.{ ..S J y 8 7 # f } ..o.#...o.X.} ....*...S { F ..K D C & ; y.=.=...o.{ o.X.S {  .>.j.o.S ..[ L P x 8 # 2 { <.J.<...=.=...",
"o.{ ..Q &.} S V g # 3 & / =...s.j.{ L ..F ..=.] [ X.z Z S K m & # ] =.....=.=...} ] <.>...a.4.} ..=.Z x A 7 4 O L ] >.>.X...} ..",
"} =.I Q [ I c Z u   # # D =.=.2.m.o.{ o.] e.D.>.W [ Z Z V x 9 + ; Z ....{ ..X.X.=.1.4...O.4.} L ] K S S j , O 9 F >.~ } ! ..X.I ",
"I ] x I I Z J Z 6 , 2 i D ! ....u.#...X.>..... .F F Z S S z 8 + @ B G J =.X.P ..J [ ! L } =.[ L [ Z L x B e $ k K [ W X.! ..=.! ",
"..S S Z S K S c e h } 7 S R P [ U o.X.{ P } L F J Z Z F S V z , h x Z L G ..^ Z F ! L B K F A S G Z x h S @ , A Z G ~ } Q ..X.I ",
"} D G Z S x K z y 7 h h y V D K ..X._ X.L J S A S S P S S V y # 4 A F x Z P D L A L D Z S Z B S x x Z S w @ $ j V G } P V T ] Z ",
"S D Z F S z P z w A &X7 1 y S A L F P S B V Y Z Z x z x J z < 7 m i B x c c x S Z B A V S S V z c z x y < e 7 j S x F S A Z F I ",
"D V J S K Z z r ; &.A.7 T y h B J x j G B V z S S c z Z V r h d.<XC e r z x x x x z x z z c V V F c w r 6.r ~ $Xl Z V Z F Z x V ",
"Z Z S x c V z i 6 a.e ; =.P i 0 r b B B u i * % c x x y w 1 ! y 7 9 ( 4 i j C u u 7 9 & 2 . 5 i * 4 O & y # y.,.3 z c c S n c B ",
"i 4 3 2 $ 8 - , & y y w x z < < $ 7 w y 2 . 4 & > > + & , i f e - w j 2 , i j 6 - , X O 1 2 * 2 R P , < < u z r # ; y j x Z w g ",
"w C $Xm , i , 8 r a f.7XD.K.1Xd 8 ! T 8 # w s w 6 f 8 7 u c G.H.Q.7X-Xw # 7 &.#Xy 7 i C &X].#XS z c h j.4X4Xj.U y 2 O 7 j 9 , @ ",
"tX<XG.Q.(.pXyX1XF.f.F.V._.wXfXQ + z T 9 3 Q.^.v.W.|.6X`.7Xv.N.E.c.;X|.K u y -.K 9 6.8XyXfXXXQ.5XeX).i.|.!.T.m.U.$X9 & [ #X& # 1 ",
"hXA.$.V.I.U.T.T.6X3.n.c.M.R.R.z.$ < 7 @ w W.V.M..XdXfXU.M.R./.N.C.M.v.rXA.6 7 2 t f.fX`.n.E.R.m.V.[.i.m.eXV.v.V.G.Z i u ;.4 ; D.",
"3.2.h.3.eXv.M.P.T.l.l.9.k.q.M.c.=.; 7 < j.f.v.M.0.H.0...z.F.c.w.M.c.V.@XsXh . 7 9.U.n.$.3.c.M.m.Y.c.l.v.T.U.9.k.@.L j u y.1 > j.",
"2.H.j.>.4.0.@.c.B.N.V.#.>.} o.=.| 7 ; f.dX>X<.c.=.X.t...<.h.>.o.m.z.@.m.J.T ; i XX$.#.o. .<.2.l.v.l.2.2.u.X.#.#.=.j.OXm w < t u.",
"..#.2... .s.%.%.{.x.#.o.p.o.{ W 2.3 j S.r.K.X.c...=.=.>.O.2.} =.l.$.9.q.' 0.6 4 /.$.y.=.=.^ X.2.#.n.o. .>...X.} L I [ y & : 5.2.",
"=...d.>...>.=.} >.h.O.>.p...%.L S ; l h.2.H. .>.>.O...>.K.=.} >.>.} =...Z P w y 2.#.>.} =.%.K.5.o. .j.4.] o.......b S m & - } &.",
" .>.>...=.....>...=.}  .<.>.} J Z r v ....#.>.>.p.} %.=.<...=.{ ] ..&.=.P B < g p.o...=.>.} ,. ...2.p.} P =.X.P ^ Z P A , y D &.",
"X.} [ X.=.} o.H.X...>.=.[ } P Z e h y.o.o.>.{ =.>.T {  .} ......X.=...Z c D ; & I { X.=.[ X.[ I ..o.<.=.} X.^ S L S V 7 , - j } ",
"*.} W ....>.o.>.! ! X...I ] S F 3 b y.>.o.....&...~ =.=.-...Q } S F [ =.T B $ 9 x ..<.[ K X.} ..I Q [ ....P S F S Z z y 7 6 w D ",
"S ! Z P } ] >.{ S D F F K P V x 7 6 P { *...I [ D Z =...~ } [ { Z G b F V B 4 + x P ^ G F ! T { S P K K K S S S c b j h $Xy.D w ",
"y Z E C I J Z S S L V V V S V B e 6 Z P } ..B K A I ~ x Z S S Z G x D V j Y u i h k D F F G B S S G Z x V S D S S j x h x =.<Xu ",
"9 0 h u 7 S G A Z Z S V V V V x h ..h x P S K A x P F j S F c J V c A j K e z +Xj B D S V D S D S x x B Z V x x l c z j D h a.u ",
", 7 y OXA 7 S Z Z r x x z z y < r 1.7 r c Z x S S b x I c c x x v c e $ # # ,.V ; 6 e B V F Z S D Z S S B V x x b h y ; i C u y ",
"% O * j 6.u j g 7 3 2 5 2 9 4 7 h B g & & e h B c x 8 9 y O & # 2 * j 9 g j A u w 7 8 j y % % C 8 y 8 x V j 9 0 r 2 * % A tXz 1 ",
"# 2 - < w V yX-.3 6 w u y u w B eX@X3Xx ; - 6 7 i 8 o # , < y u ; + 6XiXuX*X7X.XW.sXuX`.z 6 y &Xu 1 y [ q . j 2 % O . z 8X|.V # ",
"7 u ,XK w [ 6.7 q `.9X>XD.7X8XS.V.U._.T.'.@X; 8 9 + $ w %X!.U.f.h.p.m._.H.^.rX.X[.).T.V.7X7Xv.}.6.q 6 [ 6.w O . = d j @X(.Q.:XA.",
"j.j.j.z h &.a.w f 0X).).U.T.Y.pXV.R.eXv.U.G.w d E m &Xg..XU.9.m.N.U./.^.V.B.m.m.N.M.B.[.;X;XV.M.=.h $ - 4 # 4 g 5X6X8X|.x.I.U.yX",
"#.@.4.+XI i y u c D.f.E.^.[.v.U.h.$.V.l.8.S.@X8 & D yX:.c.v.l.u.sX4.k.U.[.=Xc.N.{.N.N.V.N.C.V.c.h.J ; , i B &XtX.X*X!.%XT.c.v.q.",
"o...j.4.s.< - h 8Xj.3.O.9.v.v.v.=.>.{ #.O.D.K O ; l f.2.z.z. .>.n.>.:.j.+.c.0.k.m.x.C.m.c.[.q.n.z.U z 4.z S.pXT.B.v...4.l.O.l.k.",
"o.{ >.=.[ ; 3 j qX#...=.u.$.8.E...=.p.o...I z # : j.j.] m.2...=.w.p.f.<.} g.=.<.1.O.m.{ $.u.| #.i.J 1 w e f.h. .8...<.1.#.2.4.<.",
"X.X.=.[ =.x o g j.>.! =.<.o.@.).,.&...=.%.x A 8 q s.o.3. .;.} =. .X.>.} ..:.>.U.} 2.s.>...u.>._ W Z $ X = X.{ o.{ X.[ 4.#.f....."
};
