/* XPM */
static char *chiave641685352637[] = {
/* columns rows colors chars-per-pixel */
"64 64 247 2 ",
"   c #000936",
".  c #0A193A",
"X  c #06122F",
"o  c #172831",
"O  c #1C233E",
"+  c #1A2A3A",
"@  c #162735",
"#  c #212E36",
"$  c #25313B",
"%  c #0B1A45",
"&  c #09184A",
"*  c #131D49",
"=  c #171C46",
"-  c #0A1C56",
";  c #121D53",
":  c #162343",
">  c #1B2443",
",  c #14234B",
"<  c #1C244C",
"1  c #1C294C",
"2  c #1A2B44",
"3  c #152253",
"4  c #1A2453",
"5  c #1B2A56",
"6  c #1C255A",
"7  c #1D2B5B",
"8  c #162459",
"9  c #222645",
"0  c #23254B",
"q  c #232A4C",
"w  c #2A2D4A",
"e  c #272D47",
"r  c #2D344C",
"t  c #253349",
"y  c #222553",
"u  c #242D53",
"i  c #2B2E56",
"p  c #21265B",
"a  c #2A2E5B",
"s  c #222C5A",
"d  c #253354",
"f  c #2B3353",
"g  c #24325D",
"h  c #29345B",
"j  c #2B395B",
"k  c #2D3954",
"l  c #313356",
"z  c #333A56",
"x  c #33365B",
"c  c #343C5D",
"v  c #383D5D",
"b  c #32384E",
"n  c #1A2B65",
"m  c #1A2A69",
"M  c #1F346A",
"N  c #1A337A",
"B  c #222A69",
"V  c #253462",
"C  c #2C3463",
"Z  c #2D3B62",
"A  c #23336B",
"S  c #2B3B6C",
"D  c #28396B",
"F  c #333663",
"G  c #343C65",
"H  c #393D63",
"J  c #353C6A",
"K  c #3B3F6C",
"L  c #353769",
"P  c #283876",
"I  c #333D74",
"U  c #343D7C",
"Y  c #363C76",
"T  c #344264",
"R  c #3B4266",
"E  c #36436B",
"W  c #3C436B",
"Q  c #3D496B",
"!  c #3F4867",
"~  c #344473",
"^  c #3C4472",
"/  c #3E4C73",
"(  c #34447C",
")  c #3D4B7D",
"_  c #3A467E",
"`  c #3C517F",
"'  c #2F4171",
"]  c #41466D",
"[  c #43496C",
"{  c #4A4C6D",
"}  c #414563",
"|  c #424773",
" . c #434B73",
".. c #4A4D73",
"X. c #454B7A",
"o. c #4B4E7C",
"O. c #454679",
"+. c #445275",
"@. c #4B5175",
"#. c #45527A",
"$. c #4C547B",
"%. c #4F5A7E",
"&. c #4B5976",
"*. c #52557C",
"=. c #555979",
"-. c #233A88",
";. c #2D4587",
":. c #354A83",
">. c #3D4C83",
",. c #3C4E8B",
"<. c #344688",
"1. c #3E5288",
"2. c #364A95",
"3. c #3E5597",
"4. c #2A4093",
"5. c #414C84",
"6. c #434A88",
"7. c #445283",
"8. c #4D5482",
"9. c #4F5B85",
"0. c #44548C",
"q. c #4A568C",
"w. c #535B85",
"e. c #595D84",
"r. c #535D8B",
"t. c #555889",
"y. c #4C5B94",
"u. c #455C9C",
"i. c #475697",
"p. c #565D94",
"a. c #595C91",
"s. c #5A618A",
"d. c #4C639C",
"f. c #54659B",
"g. c #5E6C9C",
"h. c #596694",
"j. c #656D9C",
"k. c #69749A",
"l. c #646E8E",
"z. c #4959A4",
"x. c #4E5DAB",
"c. c #4E66AB",
"v. c #5464A2",
"b. c #5363AD",
"n. c #5769A8",
"m. c #5B72AB",
"M. c #5369B4",
"N. c #5A6EBC",
"B. c #5867B5",
"V. c #5A72BD",
"C. c #4963B7",
"Z. c #616EA1",
"A. c #606CA8",
"S. c #6876A9",
"D. c #616CB7",
"F. c #6172B6",
"G. c #677AB9",
"H. c #707EAD",
"J. c #596DC2",
"K. c #5D74CA",
"L. c #637AC3",
"P. c #637CCC",
"I. c #6977C6",
"U. c #727CCB",
"Y. c #667BD5",
"T. c #798ABC",
"R. c #7784AE",
"E. c #7A8CC5",
"W. c #798AC7",
"Q. c #7E92CD",
"!. c #7991CA",
"~. c #6D85DA",
"^. c #6C82D2",
"/. c #7283D4",
"(. c #7584DB",
"). c #7889D9",
"_. c #7D95D2",
"`. c #7590D8",
"'. c #6F85CE",
"]. c #7A8DE2",
"[. c #748CEA",
"{. c #7689E4",
"}. c #7B94E4",
"|. c #7C93EC",
" X c #7D98EC",
".X c #7690E7",
"XX c #7C8EF7",
"oX c #7C96F2",
"OX c #7E9AF4",
"+X c #7C95FB",
"@X c #7D9AFD",
"#X c #7795F5",
"$X c #7FA2FD",
"%X c #828ABE",
"&X c #8594BF",
"*X c #8593C3",
"=X c #8292CC",
"-X c #8A94C9",
";X c #818ED8",
":X c #8494D2",
">X c #889AD9",
",X c #8997CE",
"<X c #8BA2DA",
"1X c #92A1CC",
"2X c #838BEC",
"3X c #828AE5",
"4X c #8494EC",
"5X c #889AEB",
"6X c #8293F2",
"7X c #829CF4",
"8X c #8C9DF3",
"9X c #8296FE",
"0X c #869EFE",
"qX c #899EFE",
"wX c #8B96FF",
"eX c #919DFE",
"rX c #8B95ED",
"tX c #8EA3E3",
"yX c #8CA6EC",
"uX c #92A5E4",
"iX c #95A5EC",
"pX c #95ABEC",
"aX c #9BAAEC",
"sX c #98A6E6",
"dX c #9CB1EC",
"fX c #85A3F6",
"gX c #8AA4F4",
"hX c #8BA9F6",
"jX c #86A4FE",
"kX c #8BA5FF",
"lX c #86A9FD",
"zX c #8CA9FE",
"xX c #82A8F1",
"cX c #94ABF5",
"vX c #91A5FE",
"bX c #93ABFD",
"nX c #9AADFB",
"mX c #97A9F2",
"MX c #9BB1F3",
"NX c #96B1FF",
"BX c #9CB3FD",
"VX c #9AB6F8",
"CX c #A1B5FB",
"ZX c #A3BAFE",
"AX c #AABFFF",
"SX c #A0AFF2",
"DX c #AAC4FF",
/* pixels */
"kXzXkXzXkXvXzXkXzXkXzXzXkXkXzXkXvXqXkXkXkXkXvXkXkXzXkXkXkXkXkXkXkXzXkXkXkXkXkXkXqXkXkXkXkXkXqXkXkXqXkXkXjXqXqXkXqXqXqX0XjX0X0XqX",
"kXkXkXkXzXkXzXzXzXzXkXzXzXkXkXkXkXkXkXkXkXkXqXkXkXvXkXkXkXvXvXkXvXkXkXvXqXkXkXqXkXkXkXkXkXkXkXkXqXkXkXqXkXqXjXqXqXjXqXjXqXqXqXjX",
"zXkXzXkXzXzXzXzXkXzXzXzXzXzXkXkXkXkXkXkXkXkXkXkXzXvXvXkXzXkXkXkXkXkXkXkXkXkXkXkXqXkXkXkXqXkXkXkXqXkXkXqXqXjXkXqXqXjXqXqX0XjX0X0X",
"kXkXzXkXkXzXkXkXzXkXkXvXkXkXzXkXkXkXkXkXvXkXkXkXkXkXkXkXkXkXvXkXkXkXkXkXkXkXkXqXkXkXkXqXkXkXkXqXkXjXqXkXkXjXqXjXjXqXqXqXqXqX0XqX",
"kXzXkXkXzXzXkXzXzXkXzXkXzXzXkXkXvXkXkXzXkXzXkXvXkXkXkXkXkXkXvXkXvXkXkXkXkXkXqXkXkXkXkXkXkXkXkXkXjXqXqXjXkXqXjXqXjXqXqXjX0XqXjX0X",
"kXkXzXkXzXkXzXzXzXzXkXzXkXkXzXkXkXkXkXvXvXkXkXkXvXkXvXkXzXvXkXzXkXkXkXkXkXkXkXkXkXqXkXkXqXkXkXqXqXkXkXqXjXqXqXjXqXjXqX0XqX0X0XqX",
"zXzXkXkXzXkXzXzXkXzXkXzXzXkXkXkXzXkXvXkXkXzXzXkXkXvXzXkXkXkXvXkXkXkXkXkXqXkXqXkXkXkXkXkXkXkXkXkXkXkXkXkXkXqXjXqXqXjXqXqX0XqXqX0X",
"kXkXkXzXkXzXzXzXvXkXzXzXzXkXkXkXvXkXzXzXkXvXvXkXkXkXkXkXkXkXkXkXkXvXkXkXvXkXkXkXkXqXkXkXkXkXkXqXjXqXqXjXjXqXqXkXqXqXjXqX0X0XqXjX",
"zXkXkXkXzXkXkXkXkXzXzXzXzXzXkXkXkXqXkXkXkXkXvXzXkXkXkXkXkXkXkXvXkXvXkXkXqXvXkXqXkXkXkXkXkXkXqXkXqXjXkXqXkXqXqXjX0X0X0X0XqX0X0XqX",
"jXkXkXkXkXkXzXzXkXkXzXzXkXkXkXkXkXqXkXvXkXvXkXzXkXvXkXkXkXkXkXkXkXkXkXkXkXkXkXkXkXkXkXqXkXqXkXkXkXqXkXkXkXjXkX0X0X0X0XqX0XqXjX0X",
"kXkXkXzXkXzXjXkXkXkXzXzXkXkXkXjXkXkXkXkXkXvXzXzXzXkXkXvXkXkXkXkXvXkXkXkXkXkXkXqXkXkXkXkXkXkXkXkXkXkXkXkX0XqXjX0X0X0X0XqX0XjXqX0X",
"jXkXjXzXkXkXzXkXkXkXkXkXkXkXkXkXkXkXkXkXkXkXvXzXkXvXkXkXvXkXqXkXkXkXkXkXkXkXkXkXqXkXkXkXkXkXqXkXkXkXqXkXjXkX0X0X0X0X0X0XqXqX0XqX",
"kXkXkXkXkXkXzXzXzXkXzXkXkXkXfXkXkXkXkXkXkXkXkXkXkXkXkXkXkXkXkXkXkXkXkXkXkXkXkXkXkXkXkXqXkXkXkXqXkXkXkXqXqXjXqX0X0X0X0X0X0XqXjX0X",
"lXkXkXzXzXkXkXkXkXzXkXkXkXkXkXzXkXkXvXkXkXkXvXkXkXvXkXzXvXkXkXkXvXkXkXvXkXqXqXkXvXkXkXkXqXkXkXkXqXkXkXkXkXqXqX0X0X0X0XjXqX0X0XqX",
"kXkXkXkXzXkXkXkXzXzXkXkXjXkXkXkXkXvXkXvXvXkXkXkXkXvXvXkXkXkXkXkXkXkXkXkXkXkXkXkXkXkXkXkXkXqXkXqXqXkXkXqXkXjXqX0X0X0X0XqX0XqXqX0X",
"kXkXkXzXkXkXzXzXzXkXzXkXkXkXkXzXkXzXkXkXkXkXkXzXkXkXkXkXkXkXvXkXkXkXkXkXkXkXqXkXkXkXkXqXkXkXkXkXjXqXkXjXqXjXjXqX0X0X0XqX0X0XqXjX",
"kXvXkXkXkXgXkXzXzXlXlXzXbXzXvXzXkXvXvXzXzXzXzXkXzXkXzXkXvXvXvXqXkXkXkXvXkXvXkXkXvXkXeXkXkXqXqXkXkXqXjXqXqXqXqX0XqXqXqXkXqXqXqXqX",
"vXkXkXkXkXkXfXzXbXzXzXfXkXhXkXkXvXvXzXzXzXbXbXkXkXhXzXkXkXkXvXqXeXvXkXkXvXkXqXkXqXkXkXqXqXkXkXqXqXkXjXqXkX7XqXqXqXjXqXqXkXqXkXqX",
"vXkXkXzXzXkXzXjXfXzXbXkXbXBXBXBXBXBXBXnXbXbXzXkXkXkXkXkXkXqXvXvXkXzXvXkXkXkXkXkXkXkXkXkXkXkXkXkXkXkXqXjXqX0XqXqXqXqXqXkXqXkXqXqX",
"kXvXvXzXkXzXkXkXbXzXhXcXcXVXVXMXmXMXBXBXBXbXbXhXkXzXvXkXqXvXkXqXvXkXkXkXkXkXkXkXvXkXkXkXkXkXkXkXkXqXjX0XkX7XqXqXqXjXjXqXkXqXqXjX",
"kXzXkXzXzXzXkXzXbXgXcXBXDXdXuXpXuXtXtXpXBXZXBXnXhXbXzXkXkXkXkXkXkXkXzXkXzXkXkXkXzXkXkXkXkXkXkXkXkXqXkXqXqXqX7XkXqXgX7XkXqXgXqX7X",
"kXkXzXkXzXkXzXzXhXnXZXAXdXT.S.h.y.q.y.m.E.uXMXVXhXNXhXzXkXkXkXkXzXkXkXkXlXkXkXgXkXzXkXkXkXkXfXkXqXkXqXkXkXqX0XkXqXqXkXqXkXqXkXkX",
"lXlXkXzXzXvXvXbXnXZXMX!.h.~ 5 . % * 5 A ( d.!.mXcXcXvXzXkXkXjXzXkXzXzXkXkXkXkXkXkXkXkXkXkXkXkXkXkXkXqXqXqXqXqXqXqXkXjXkXkX0XqX0X",
"zXkXjXkXkXzXbXnXnXMX=X1., 2 j T  .8.9.E 3 8 y.Q.MXmXcXhXkXkXzXzXkXkXkXzXkXkXkXkXzXzXhXkXkXkXkXkXkXeXkXqXqXkXqXkXqXqXqXkXqXqXkX0X",
"lXbXfXbX7XvXBXiXMXsXI % E +.t c @.@.w.w.X.#.8 P <XMXyXgXNXBX.XNXzXzXzXzXzXzXzXvXzXzXzXzXkXzXkXkXkXvXqXqXqXqXqXqXkXqXqXjXkXjXqXjX",
"jXzXjXzXkXvXMXBXsX:.4 J &.[ r k [ %.[  .9.h.~ 8 :.>XMXnX7XxXNXjXzXzXbXzXzXzXkXkXkXkXzXzXzXvXzXvXvXvXvXvXvXeXkXkXqXkXkXqX0XqXjXqX",
"kXkXzXfXbXmXiXSXn.; ^ 8.+.! v z l l.s.s.@.8.r.7.& R.tXyXNXhXNXhXvXbXbXbXbXbXbXvXvXzXbXzXvXbXzXzXvXvXvXvXvXkXkXqX0XzXkXqXqXkXkX0X",
"kXkXzXkXbXmXaXW.4 C r./ R R l v F $.H W R | 8.8.n - E.ZXcXNXVXhXbXzXvXbXbXbXzXbXNXNXNXbXbXbXbXvXnXvXnXvXvXvXzXzXqXjXqXjXjXkXjX@X",
"kXkXzXvXnXiXsX5.4 X.Q W [ [ x K ..o.F F ] t.8.8.q.8 S.uXVXcXxXcXMXnXNXbXnXBXBXBXvXnXnXbXbXnXNXNXnXnXnXmXNXbXzXbXbXkX0XkXjX0X0XjX",
"zXkXzXbXmXsX=X6 ^ $.R  .R | H a F 8.O.L a O.O.7.h.Z.) 1.pXDXdXDXBXBXCXVXBXBXBXZXDXZXZXDXZXZXZXBXZXCXZXZXVXVXBXNXVXNXzXzXjXOX@XjX",
"zXkXvXvXmXsXp., W W W W R | h 4 K a.O.o.O.8.t.@.h.J - A d.tXVXyXcXMXMXMXMXcXpXpXuXtXtXtX<X>X_.>XQ._._._.`._.`.`.`.gXNXzXfXfXfXfX",
"kXqXnX8XiXsXS h @.x ] | k.a.h K L t.L 6...F o.$.s., g V 5 ` ' 1.1.1.0.0.0.1._ ( :.( :.( ( ( ( ' D D D D ' D P M ;.G.yXgXfXjXzX@X",
"jXbXvXeXrX-Xy } | F a.a./ T k.k i 8.L y < K o.=.@.9 i e 9 e q < 4 B B p y y y 4 d d , h a C y F u d q z r f > j g ' n.yXhXlX@XjX",
"lXhXvX8XsX%X0 { F j.O.; &   t l.W 8.t.s.a.*.$.@.e.O > > e r r r 0 q q 9 9 0 0 9 t t e f 0 x l i v e 9 r O z z z j V :.V.}.fX@X$X",
"lXjXvX8XsXS.y O.R t.B B U ( 6 J k.o.J F H i X.w...= l f q > > e e $ $ # # $ $ $ $ $ t t # r f q < c u e z k O 1 h 7 m 2.~.jXjX$X",
"zXfXeXrXrXa.0 | o.Y P D.B.G.i.L r.#. .| | E $./ w.< < < u a u 2 @ o o o o @ # + + + 2 2 = < 1 < * 5 , * < 1 . 1 4 - - N ^.#X@X@X",
"lXxXlX5XsX6.y K | _ i.U.U.Y.U.D.X./ Z T d E $./ $.s Z 5 4 5 s 4 7 7 g g g g V V ~ ` Q Q ` 1.` 1.y.A 7.Z.r.h.R.f.S.F.M.M.OXjXjX0X",
"lXzX7XyX>XU y L K 5.I.2XeX6X2XU.5.$.Q #.E Q +.#.Q / *X1X&X&X-X1X:X=X=X:X,X:X:X,X_._._._.<X<X<X<XL.i.F.:X:X=X,XE.Q.Q.'.^.OXOX#X@X",
"lXbX7X8X;XY s G ~ O.;XnXrX6X8X;X0.$.T T T T +.+.+.V h.R.R.S.g.h.v.v.v.v.c.d.f.v.u.;.3.R.u.( 3.c.V.N.x.2.z.<.3.V.b.M.N.~.#X0XjXkX",
"fXbX6XvX;X-.a G R O.;XmXeXnX8X/.~ / G < T T @.+.s.. > u g j $.H.*X*XE.T.T.T.T.!.R.n 3.`.c.N 3.J.(. X}.C.z.-.2.N.M.N.K.OX7XqX@X@X",
"$XzXqX7XrX6.D a / d R.dXVX5X4Xn.~ o.t.O...{ *.{ @.2 2 q : c : d q k 2 2 d , & n ' ;.;.4.2.C.Y.~.oXoX[.~.K.C.2.-.4.C.~.oX9X@X0X0X",
"$XzXqXqX3Xp.D h Q T M m.:X_.i.I 6.o.= *.e.= =.{ =.e > O : : : 2 @ X X . . % n 1.c.V.P.P.Y.[.XX+X@X+X0XoX[.Y.K.J.K.~.|.@X7X0XjX@X",
"lXjXjXwX2XD.I C &.T T S ' I ) r.o.F O.x i ] x =.! > : v ! R %./ E 7 5 M P <.x.L.Y.[.+XXXXX+X9X+XkXqXjXqX#XoX.X.X XOXOXoX@XjXjX0X",
"lXjXqXqX2XU.U F d k / E 7.^ | G ] K O.K i H v =.[ q q w.%.s.k.j.y.u.n.V.I./.{.{.6X9X0X+X+X0XqXkXkXzXjXqXoXoX|. X#X XoX7XqXjXjX@X",
"lXjXkXwX2X(.6.L d &.j h W w.H ..K *.h H x R %.[ +., , * ; ; n m -.Y.}.2X6X4X|.wXwXkXjXjX0XkXzXbXkXkXqXkXqX0XjX0X7X9XfXjXjXjX0X@X",
"hXjXqXwX6X2Xb.Y 1 Q +.| K K K { ] R ] d u  .Q $.#.7 ~ 6 U m P P x.2XwXXXwX0X+XkXqXqXkXjXfXgXxXlXqXkXkXkXkXkXkXkXjXjXjXjXjXjX0XjX",
"$XhXqXwXwX2XU.O.X.q | @.| L =.H ..c d Q W 2 E 9.V I >.i.F.B.J.J.Y.oX9X7XkXzXqXjXkXkXzXlXzXlXlXlXkXzXvXkXkX7XjXjXkXfX@XjX$X0X0XjX",
"$XhXeXwXeX2X(.6.5.V C 8.O...{ { [ W d c / d +.' 7 f.;.I.L.].{..X9XoXjXbXjXqXkXzXkXjXjXjXjXjXlXzXvXzXvXkXkXjXkXzXzXjX0XjXjXjXjX@X",
"lXzXkXqXwX6X).U.U y.p C e.@.=.} { } } [ [ %.E & 0.2.c.~.|.#X#X#X0XfXkXkXkXzXzXkXzXkXkXzXkXkXzXzXzXzXzXkXzXjXzXjXzXjXkXjXjXjXjXjX",
"lXlXkXkXqX7X4X).B.B n.L . e.{ =.{ =...e.s.< , n.:.z.^. X@X@X$X$X0X0XkXkXkXkXkXkXzXzXzXzXzXkXzXkXkXzXzXkXjXkXjXjXkXlXjXjXjXjXjX0X",
"jXzXkXkXkXqXrX}.U.z.B p.|   v H ] H  .h   D f.P 1.'.}.$XjXjXjXlXjXkXkXkXzXkXkXzXkXzXzXkXzXzXkXzXzXzXkXlXjXlXzXjXlXzXjXjXjX0XjX0X",
"jXlXjXjXqXkX7X4XI.U.i.6 t.S.L 0 = < * S j.y.P 2.K.}. X XlXlX$X$XzXkXzXkXzXzXkXzXzXkXzXkXzXzXzXzXlXlXzXkXjXzXjXjXkXjXjXjXjXjXjXjX",
"lXlXjXjXjXqX7X6X5X).I.6.B P 6.j.g.g.Z.0.m m 3.J.`. XOXOXzXzXlXzXzXzXzXkXkXkXzXkXzXkXzXkXzXkXzXzXkXzXzXjXjXzXlXjXkXjXjXjXjXjX0XjX",
"jXlXzXlXjXjXkX7X4X(.)./.z.<.P - n - - m ;.b.^.]. XfXkXzXzXlXfXzXzXkXkXzXzXkXzXkXkXzXzXzXzXkXkXvXlXzXzXlXlXjXzXjXjXkXjXjXjXjXjX0X",
"lXlXlXjXjXjXkXkX0XkX].)./.N.b.z.;.u.c.M.P.Y.~.oXjXqXkXzXlXfXxXlXlXkXkXkXkXkXkXzXzXzXkXzXkXzXzXzXkXzXzXkXkXjXlXjXjXzXjXjXjXjX$XjX",
"$XlXlXlXjXzXkXjXqX7XkXrX6X4XY.U.!.L.P.).|.oX0X0XzX0XjXzXfXbXNXxXkXzXkXkXkXkXzXzXkXzXvXkXzXkXzXvXzXlXlXkXjXzXkXjXlXjXjXjXjXjXjX0X",
"jXlXlXjXkXjXkXkXkXkXkX0X7X6X X X}.}. X X7X0XjXjXkXjXjXzXkXhXxXhXlXzXkXzXzXzXzXzXzXzXzXzXkXzXzXkXzXlXlXzXzXjXlXjXjXkXjXjXjXjXjXjX",
"lXlXjXlXlXlXjXjXjXkXkXjXqX9X0X7X X7XxX7XqXjXjXkXkXkXzXkXzXlXhXhXkXzXzXkXkXvXvXzXvXzXzXzXkXzXzXkXkXzXkXjXjXjXkXjXjXjXjXjXjXjXjXjX",
"jXlXjXzXjXlXkXlXjXjXjXjXjXkXkXjXjXzXlXjXjXkXzXzXzXjXkXzXzXlXhXcXhXzXzXzXzXvXzXzXzXzXzXzXvXkXzXzXlXkXlXkXjXjXjXjXjXjXjXkXjXqXjXjX",
"jXjXjXlXjXkXjXlXjXjXkXjXkXlXkXzXkXlXkXzXkXzXzXjXzXzXzXzXhXlXkXkXvXzXzXzXzXzXzXzXvXkXzXzXzXzXzXkXzXjXzXfXkXlXjXjXzXjXjXjXjXjXjXjX",
"jXjXlXkXjXzXjXjXzXjXjXlXjXlXjXlXlXjXkXjXzXzXzXzXlXzXkXzXkXvXzXzXzXkXzXvXzXzXzXvXzXzXvXzXkXzXzXzXjXlXfXkXkXjXjXjXjXjXjXjXjXjXqXjX",
"zXkXzXjXkXlXlXkXlXlXjXlXjXlXjXjXkXjXjXkXzXzXzXzXzXzXkXzXzXzXzXzXkXzXzXkXkXzXzXzXzXzXzXzXzXkXzXzXjXjXjXjXlXfXlXkXjXkXjXjXjXjXjXjX",
"kXjXkXkXjXkXjXkXjXlXjX$XlXlXlXjXjXkXkXkXzXzXzXzXzXzXzXzXzXzXzXzXzXzXkXzXzXzXzXzXvXzXvXkXzXkXzXzXfXlXjXfXjXkXjXkXjXkXjXjXjXjXjXjX",
"kXkXkXkXkXkXzXlXfXzXlXlXlXlX$XlXzXzXkXkXzXkXzXhXbXhXzXzXzXvXzXvXzXkXzXzXkXzXzXvXzXzXzXzXkXzXkXzXkXjXjXjXjXjXlXjXjXjXjXjXjXjXqXjX"
};
