/* XPM */
static char *coltello64j1685352637[] = {
/* columns rows colors chars-per-pixel */
"64 64 209 2 ",
"   c #1C0900",
".  c #200D00",
"X  c #2C1302",
"o  c #2F1E0E",
"O  c #311700",
"+  c #391400",
"@  c #3F2404",
"#  c #3A210D",
"$  c #3E2511",
"%  c #421F04",
"&  c #512E06",
"*  c #5A320E",
"=  c #4D2F17",
"-  c #502E12",
";  c #56371B",
":  c #5B391A",
">  c #4D2A0C",
",  c #633D1A",
"<  c #4D3725",
"1  c #543A26",
"2  c #65441A",
"3  c #72461C",
"4  c #76491A",
"5  c #77440F",
"6  c #5D442C",
"7  c #57483A",
"8  c #66472B",
"9  c #734B22",
"0  c #6E502C",
"q  c #7A5323",
"w  c #604830",
"e  c #724F31",
"r  c #7A583C",
"t  c #3D4655",
"y  c #5C5753",
"u  c #65574A",
"i  c #715B46",
"p  c #73665A",
"a  c #7E6755",
"s  c #4A5364",
"d  c #53596E",
"f  c #575D73",
"g  c #655F69",
"h  c #5D6372",
"j  c #5D657C",
"k  c #5F6878",
"l  c #756B6A",
"z  c #63657C",
"x  c #626B7C",
"c  c #686875",
"v  c #79767B",
"b  c #78767A",
"n  c #6E6664",
"m  c #804C13",
"M  c #8F501B",
"N  c #92581B",
"B  c #865726",
"V  c #935B25",
"C  c #995A24",
"Z  c #825C32",
"A  c #895E33",
"S  c #9C652C",
"D  c #996528",
"F  c #8E6533",
"G  c #9B6539",
"H  c #996B3A",
"J  c #A46B2C",
"K  c #A46B33",
"L  c #A96B33",
"P  c #A46C3D",
"I  c #A16636",
"U  c #A67235",
"Y  c #AE7337",
"T  c #A4743C",
"R  c #AD743C",
"E  c #AA793F",
"W  c #B47C3C",
"Q  c #B0733A",
"!  c #81654B",
"~  c #956A44",
"^  c #866C5A",
"/  c #9A7651",
"(  c #AC7A49",
")  c #A77445",
"_  c #B67B43",
"`  c #BA7D43",
"'  c #B27C4C",
"]  c #A57C51",
"[  c #887A6B",
"{  c #997E69",
"}  c #857D78",
"|  c #BD834B",
" . c #B7804A",
".. c #BC8B52",
"X. c #B3875C",
"o. c #BF9155",
"O. c #998677",
"+. c #988068",
"@. c #B08D6F",
"#. c #A28B78",
"$. c #A7957A",
"%. c #A28769",
"&. c #C28549",
"*. c #C58D53",
"=. c #C9935A",
"-. c #C49F73",
";. c #C6926B",
":. c #D0A16B",
">. c #CBAA7F",
",. c #D5A776",
"<. c #E2AF78",
"1. c #5D6780",
"2. c #656B82",
"3. c #686F84",
"4. c #676E89",
"5. c #667186",
"6. c #66718A",
"7. c #6C748C",
"8. c #6C7385",
"9. c #767788",
"0. c #777A8A",
"q. c #6E7692",
"w. c #747B93",
"e. c #757C9A",
"r. c #7A7E9F",
"t. c #767A97",
"y. c #787EA1",
"u. c #7D8294",
"i. c #7D839B",
"p. c #9F8D81",
"a. c #818593",
"s. c #81879B",
"d. c #838A9D",
"f. c #898B98",
"g. c #8B929D",
"h. c #869195",
"j. c #9A989B",
"k. c #A79587",
"l. c #A69B93",
"z. c #BCA185",
"x. c #B9A392",
"c. c #858AA8",
"v. c #8C92A2",
"b. c #8C93AA",
"n. c #8E98A4",
"m. c #969AA9",
"M. c #9498B1",
"N. c #95A0A4",
"B. c #9FA3B1",
"V. c #96A1B7",
"C. c #B3B5BE",
"Z. c #B3B1AE",
"A. c #D3AF8D",
"S. c #CDB18C",
"D. c #DDB180",
"F. c #C6B19E",
"G. c #C6A586",
"H. c #E4B886",
"J. c #C6BDB2",
"K. c #C8B5A6",
"L. c #EFC396",
"P. c #F1C89A",
"I. c #F5CCA3",
"U. c #FFDBAF",
"Y. c #FCD6B6",
"T. c #FFD9B6",
"R. c #EACFB0",
"E. c #AFB8C1",
"W. c #B5B9C6",
"Q. c #BDC1CD",
"!. c #C2C7CE",
"~. c #DCDDCF",
"^. c #CACCD3",
"/. c #CDD6DF",
"(. c #DFDCD7",
"). c #E9D6C7",
"_. c #F3DECA",
"`. c #F2DED3",
"'. c #FFE5C4",
"]. c #FFEBCC",
"[. c #FFEEC7",
"{. c #F7E9DB",
"}. c #FFF2D2",
"|. c #FEF3DA",
" X c #FFF9DB",
".X c #E8E2CC",
"XX c #D6D8E8",
"oX c #DEE0EB",
"OX c #DFE6F0",
"+X c #F8EDE8",
"@X c #EEF1E0",
"#X c #FFFAE5",
"$X c #F5F1ED",
"%X c #FCF3EC",
"&X c #FEFBEC",
"*X c #EAECF4",
"=X c #EAEEFB",
"-X c #E6ECF5",
";X c #EDF5FE",
":X c #EBF3F7",
">X c #F4F4F4",
",X c #FBF5F4",
"<X c #FEFCF4",
"1X c #F3F5FA",
"2X c #FCF5FA",
"3X c #F5FBFE",
"4X c #FFFFFF",
"5X c #F5FAF4",
"6X c #EBECE6",
/* pixels */
"4X4X4X4X4X4X4X4X4X4X4X4X4X4X4X4X4X4X4X2X5X4X5X4X<X<X4X4X4X4X4X4X4X4X4X4X4X4X4X4X4X4X4X4X4X4X4X4X4X4X4X4X4X4X4X4X4X4X4X4X4X4X4X4X",
"4X4X4X4X4X4X4X4X4X4X4X4X4X4X4X4X2X4X4X4X4X<X<X<X4X4X<X4X4X4X4X4X4X4X4X4X4X4X4X4X4X4X4X4X4X4X4X4X4X4X4X4X4X4X4X4X4X4X4X4X4X4X4X4X",
"4X4X4X4X4X4X4X4X4X4X4X4X4X4X4X4X4X2X2X4X4X<X4X4X<X4X4X4X4X4X4X4X4X4X4X4X4X4X4X4X4X4X4X4X4X4X4X4X4X4X4X4X4X4X4X4X4X4X4X4X4X4X4X4X",
"4X4X4X4X4X4X4X4X4X4X4X4X4X4X4X4X4X3X4X4X4X4X4X<X4X<X4X4X4X4X4X4X4X4X4X4X4X4X4X4X4X4X4X4X4X4X4X4X4X4X4X4X4X4X4X4X4X4X4X4X4X4X4X4X",
"4X4X4X4X4X4X4X4X4X4X4X4X4X4X4X4X4X4X4X4X3X4X2X4X4X4X<X4X4X4X4X4X4X4X4X4X4X4X4X4X4X4X4X4X4X4X4X4X4X4X4X4X4X4X4X4X4X4X4X4X4X4X4X4X",
"4X4X4X4X4X4X4X4X4X4X4X4X4X4X4X4X2X4X1X4X4X4X5X4X4X4X4X4X4X4X4X4X4X4X4X4X4X4X4X4X4X4X4X4X4X4X4X4X4X4X4X4X4X4X4X4X4X4X4X4X4X4X4X4X",
"4X4X4X4X4X4X4X4X4X4X4X4X4X4X4X4X4X4XC.*X4X4X2X4X4X4X4X4X4X4X4X4X4X4X4X4X4X4X4X4X4X4X4X4X4X4X4X4X4X4X4X4X4X4X4X4X4X4X4X4X4X4X4X4X",
"4X4X4X4X4X4X4X4X4X4X4X4X4X4X4X4X4X=Xg !.4X4X4X3X4X4X4X4X4X4X4X4X4X4X4X4X4X4X4X4X4X4X4X4X4X4X4X4X4X4X4X4X4X4X4X4X4X4X4X4X4X4X4X4X",
"4X4X4X4X4X4X4X4X4X4X4X4X4X4X4X4X1XXX8.a.4X3X4X4X4X4X4X4X4X4X4X4X4X4X4X4X4X4X4X4X4X4X4X4X4X4X4X4X4X4X4X4X4X4X4X4X4X4X4X4X4X4X4X4X",
"4X4X4X4X4X4X4X4X4X4X4X4X4X4X4X4X4XW.9.0.Q.4X3X4X4X4X4X4X4X4X4X4X4X4X4X4X4X4X4X4X4X4X4X4X4X4X4X4X4X4X4X4X4X4X4X4X4X4X4X4X4X4X4X4X",
"4X4X4X4X4X4X4X4X4X4X4X4X4X4X4X4X4XM.3.a.g.=X4X3X4X4X4X4X4X4X4X4X4X4X4X4X4X4X4X4X4X4X4X4X4X4X4X4X4X4X4X4X4X4X4X4X4X4X4X4X4X4X4X4X",
"4X4X4X4X4X4X4X4X4X4X4X4X4X4X4X4X3Xs.z v.a.W.4X3X4X4X4X4X4X4X4X4X4X4X4X4X4X4X4X4X4X4X4X4X4X4X4X4X4X4X4X4X4X4X4X4X4X4X4X4X4X4X4X4X",
"4X4X4X4X4X4X4X4X4X4X4X4X4X4X4X4X1Xq.2.v.u.n.oX4X4X4X4X4X4X2X4X4X4X4X4X4X4X4X4X4X4X4X4X4X4X4X4X4X4X4X4X4X4X4X4X4X4X4X4X4X4X4X4X4X",
"4X4X4X4X4X4X4X4X4X4X4X4X4X4X4X4X1X1.q.t.u.g.C.4X4X4X4X4X4X4X4X4X4X4X4X4X4X4X4X4X4X4X4X4X4X4X4X4X4X4X4X4X4X4X4X4X4X4X4X4X4X4X4X4X",
"4X4X4X4X4X4X4X4X4X4X4X4X4X4X4X4X;X2.w.t.u.m.m.oX4X4X3X4X4X4X4X4X4X4X4X4X4X4X4X4X4X4X4X4X4X4X4X4X4X4X4X4X4X4X4X4X4X4X4X4X4X4X4X4X",
"4X4X4X4X4X4X4X4X4X4X4X4X4X4X4X4X;Xu.3.i.w.b.c.B.4X4X4X4X4X4X4X4X4X4X4X4X4X4X4X4X4X4X4X4X4X4X4X4X4X4X4X4X4X4X4X4X4X4X4X4X4X4X4X4X",
"4X4X4X4X4X4X4X4X4X4X4X4X4X4X4X4X;Xn.x i.q.c.i.i.XX4X4X<X4X<X4X4X4X4X4X4X4X4X4X4X4X4X4X4X4X4X4X4X4X4X4X4X4X4X4X4X4X4X4X4X4X4X4X4X",
"4X4X4X4X4X4X4X4X4X4X4X4X4X4X4X4X3Xh.k q.e.y.i.c.M.=X4X4X,X4X$X4X4X4X4X4X4X<X4X4X4X4X4X4X4X4X4X4X4X4X4X4X4X4X4X4X4X4X4X4X4X4X4X4X",
"4X4X4X4X4X4X4X4X4X4X4X4X4X4X4X4X3XN.h u.e.y.c.M.8.Q.4X>X4X4X,X4X4X4X4X4X4X4X4X4X2X4X4X4X4X4X4X4X4X4X4X4X4X4X4X4X4X4X4X4X4X4X4X4X",
"4X4X4X4X4X4X4X4X4X4X4X4X4X4X4X4X4XQ.x u.q.y.y.c.7.m.-X5X4X,X4X4X4X4X4X4X4X4X4X4X4X4X4X4X4X4X4X4X4X4X4X4X4X4X4X4X4X4X4X4X4X4X4X4X",
"4X4X4X4X4X4X4X4X4X4X4X4X4X4X4X4X4X-Xf.f q.y.y.e.i.i.B.3X3X4X4X4X4X4X4X4X4X4X4X4X4X<X4X4X4X4X4X4X4X4X4X4X4X4X4X4X4X4X4X4X4X4X4X4X",
"4X4X4X4X4X4X4X4X4X4X4X4X4X4X4X4X4X4XW.s 4.4.y.6.b.u.u.OX3X4X3X3X4X4X4X4X4X4X4X4X4X4X4X4X4X4X4X4X4X4X4X4X4X4X4X4X4X4X4X4X4X4X4X4X",
"4X4X4X4X4X4X4X4X4X4X4X4X4X4X4X4X4X3X*Xa.2.1.y.6.c.i.s.m.-X3X4X4X4X2X4X4X4X4X4X4X4X4X4X4X4X4X4X4X4X4X4X4X4X4X4X4X4X4X4X4X4X4X4X4X",
"4X4X4X4X4X4X4X4X4X4X4X4X4X4X4X4X4X3X3X^.f 1.4.4.q.V.s.x Q.3X:X4X4X4X4X4X4X4X4X4X4X4X4X4X4X4X4X<X4X4X4X4X4X4X4X4X4X4X4X4X4X4X4X4X",
"4X4X4X4X4X4X4X4X4X4X4X4X4X4X4X4X4X2X1X4Xn.k 5.6.7.7.b.i.a.4X3X4X4X4X4X4X4X4X4X4X4X4X4X4X4X4X4X4X4X4X4X4X4X4X4X4X4X4X4X4X4X4X4X4X",
"4X4X4X4X4X4X4X4X4X4X4X4X4X4X4X4X1X4X4X1X;Xh d 5.6.6.M.n.g.Z.4X3X4X2X4X4X4X4X4X4X4X4X4X4X4X4X4X4X4X4X4X4X4X4X4X4X4X4X4X4X4X4X4X4X",
"4X4X4X4X4X4X4X4X4X4X4X4X4X4X4X4X4X4X4X:X4XC.t 5.j 1.i.i.m.a.^.4X4X<X<X4X4X<X4X4X4X4X4X4X4X4X4X4X4X4X4X4X4X4X4X4X4X4X4X4X4X4X4X4X",
"4X4X4X4X4X4X4X4X4X4X4X4X4X4X4X4X4X,X4X4X:X3X8.s j 2.j u.m.v b >X<X4X<X4X4X4X3X4X4X4X4X4X4X4X4X4X4X4X4X4X4X4X4X4X4X4X4X4X4X4X4X4X",
"4X4X4X4X4X4X4X4X4X4X4X4X4X4X4X4X4X2X4X4X4X3X/.t h 6.f t.g.v y J.&X<X<X<X<X4X<X4X4X4X4X4X4X4X4X4X4X4X4X4X4X4X4X4X4X4X4X4X4X4X4X4X",
"4X4X4X4X4X4X4X4X4X4X4X4X4X4X4X4X4X4X4X4X4X3X3Xn.s j z 0.v l } } ~.<X<X<X4X4X2X4X4X4X4X2X4X4X4X4X4X4X4X4X4X4X4X4X4X4X4X4X4X4X4X4X",
"4X4X4X4X4X4X4X4X4X4X4X4X4X4X4X4X4X2X4X<X5X4X:X;X2.d x c c } l.[ Z.@X<X&X<X4X4X4X4X4X4X4X4X4X4X4X4X4X4X4X4X4X4X4X4X4X4X4X4X4X4X4X",
"4X4X4X4X4X4X4X4X4X4X4X4X4X4X4X4X2X4X2X4X4X3X3X3XB.k c g l l.O.k.$..X<X5X4X4X<X<X4X4X4X4X4X4X4X4X4X4X4X4X4X4X4X4X4X4X4X4X4X4X4X4X",
"4X4X4X4X4X4X4X4X4X4X4X4X4X4X4X4X4X4X4X4X4X3X3X4X3Xj.n p k.k.+.@.S.z.$X4X:X4X<X&X4X2X4X4X4X4X4X4X4X4X4X4X4X4X4X4X4X4X4X4X4X4X4X4X",
"4X4X4X4X4X4X4X4X4X4X4X4X4X4X4X4X2X4X4X4X4X4X4X4X4X(.u k.O.^ z.G.~ : $.#X4X4X<X&X<X4X4X4X4X3X4X4X4X4X4X4X4X4X4X4X4X4X4X4X4X4X4X4X",
"4X4X4X4X4X4X4X4X4X4X4X4X4X4X4X4X4X4X4X4X4X4X4X4X4X4XZ.7 #.#.{ ; @ 6 %._.%X%X,X4X4X<X4X4X4X4X4X4X4X4X4X4X4X4X4X4X4X4X4X4X4X4X4X4X",
"4X4X4X4X4X4X4X4X4X4X4X4X4X4X4X4X4X4X4X4X4X4X3X4X2X,X<Xp i i O X ; / +.:.'.&X<X4X4X<X4X4X4X4X4X<X4X4X4X4X4X4X4X4X4X4X4X4X4X4X4X4X",
"4X4X4X4X4X4X4X4X4X4X4X4X4X4X4X4X4X4X4X4X4X4X3X4X4X<X%X{.#   X 6 ! / B ..L.}.,X4X4X3X4X4X2X4X4X4X4X4X4X4X4X4X4X4X4X4X4X4X4X4X4X4X",
"4X4X4X4X4X4X4X4X4X4X4X4X4X4X4X4X4X<X4X4X4X4X4X4X4X4X$X<X[   < 6 i Z K *.=.P.#X<X3X3X3X4X4X4X4X4X4X4X4X4X4X4X4X4X4X4X4X4X4X4X4X4X",
"4X4X4X4X4X4X4X4X4X4X4X4X4X4X4X4X4X4X4X4X4X4X4X4X2X$X4X#X<X7 X 6 0 A ) ` | <.[.|.4X3X3X4X4X4X4X2X4X4X4X4X4X4X4X4X4X4X4X4X4X4X4X4X",
"4X4X4X4X4X4X4X4X4X4X4X4X4X4X4X4X4X<X4X4X4X4X4X4X4X4X<X,X<XJ.. 1 2 H ' L &.&.H. X<X4X3X3X4X4X4X4X4X4X4X4X4X4X4X4X4X4X4X4X4X4X4X4X",
"4X4X4X4X4X4X4X4X4X4X4X4X4X4X4X4X<X4X4X4X4X4X4X4X4X4X<X%X5X<Xn $ , F G G _ W ..I.#X4X3X3X3X4X,X<X4X4X4X4X4X4X4X4X4X4X4X4X4X4X4X4X",
"4X4X4X4X4X4X4X4X4X4X4X4X4X4X4X4X<X4X<X4X4X4X4X4X4X2X4X4X+X<X{.< & 4 3 ) R J Y :.Y.&X4X;X4X4X2X4X4X4X4X4X4X4X4X4X4X4X4X4X4X4X4X4X",
"4X4X4X4X4X4X4X4X4X4X4X4X4X4X4X4X4X4X<X4X4X4X4X4X4X2X2X<X<X,X<Xx.> 3 4 F (  .L &.D.}.<X3X3X4X<X<X4X4X4X4X4X4X4X4X4X4X4X4X4X4X4X4X",
"4X4X4X4X4X4X4X4X4X4X4X4X4X4X4X4X4X<X4X4X4X4X4X4X4X4X4X4X4X,X+X<X^ * 8 q ~ ' L Y =.P. X<X4X4X4X&X4X4X4X4X4X4X4X4X4X4X4X4X4X4X4X4X",
"4X4X4X4X4X4X4X4X4X4X4X4X4X4X4X4X4X4X<X4X4X4X4X4X4X3X4X2X,X4X$X4X.Xw @ Z F ) R L W o.I.#X4X3X4X4X4X4X4X4X4X4X4X4X4X4X4X4X4X4X4X4X",
"4X4X4X4X4X4X4X4X4X4X4X4X4X4X4X4X<X<X4X4X4X4X4X4X4X4X3X4X3X4X2X%X<XK.@ 0 ~ ) ' ` W E ,.'.&X2X4X3X4X4X4X4X4X4X4X4X4X4X4X4X4X4X4X4X",
"4X4X4X4X4X4X4X4X4X4X4X4X4X4X4X4X4X4X4X<X4X4X4X4X1X4X1X4X4X>X2X4X$X&X{ - F T T W W ` *.H.[.&X4X3X4X4X4X4X4X4X4X4X4X4X4X4X4X4X4X4X",
"4X4X4X4X4X4X4X4X4X4X4X4X4X4X4X4X4X<X<X4X4X4X4X4X4X5X4X4X4X2X4X4X4X&X%X8 , q T U K  .Y ..U.#X3X3X4X4X4X4X4X4X4X4X4X4X4X4X4X4X4X4X",
"4X4X4X4X4X4X4X4X4X4X4X4X4X4X4X4X4X4X4X4X4X4X4X4X4X4X4X4X4X4X4X4X4X<X,X).1 , ~ T E D D D -.}.,X2X4X4X4X4X4X4X4X4X4X4X4X4X4X4X4X4X",
"4X4X4X4X4X4X4X4X4X4X4X4X4X4X4X4X4X4X4X4X4X4X4X4X4X4X4X4X4X4X4X4X<X4X%X<Xk.o r 9 D N D E X.A.#X%X<X4X4X4X4X4X4X4X4X4X4X4X4X4X4X4X",
"4X4X4X4X4X4X4X4X4X4X4X4X4X4X4X4X4X4X4X4X4X4X4X4X4X4X4X4X4X4X4X4X4X<X4X2X+X^ % 3 5 U J C ) X.Y.#X<X4X4X4X4X4X4X4X4X4X4X4X4X4X4X4X",
"4X4X4X4X4X4X4X4X4X4X4X4X4X4X4X4X4X4X4X4X4X4X4X4X4X4X4X4X4X4X4X4X4X4X4X%X2X`.= * 4 K J M J ( ;.{.<X4X4X4X4X4X4X4X4X4X4X4X4X4X4X4X",
"4X4X4X4X4X4X4X4X4X4X4X4X4X4X4X4X4X4X4X4X4X4X4X4X4X4X4X4X4X4X4X4X4X4X5X4X2X<Xx.+ 3 4 J ` C C I Y.<X4X4X4X4X4X4X4X4X4X4X4X4X4X4X4X",
"4X4X4X4X4X4X4X4X4X4X4X4X4X4X4X4X4X4X4X4X4X4X4X4X4X4X4X4X4X4X4X4X4X3X3X4X4X%X&X! + 5 J  .C M I I.&X4X4X4X4X4X4X4X4X4X4X4X4X4X4X4X",
"4X4X4X4X4X4X4X4X4X4X4X4X4X4X4X4X4X4X4X4X4X4X4X4X4X4X4X4X4X4X4X4X4X4X4X:X4X<X<X).; , m B ) I I T.<X4X4X4X4X4X4X4X4X4X4X4X4X4X4X4X",
"4X4X4X4X4X4X4X4X4X4X4X4X4X4X4X4X4X4X4X4X4X4X4X4X4X4X4X4X4X4X4X4X4X>X4X4X3X$X4X<XF.O , 9 ] ) ~ ].<X4X4X4X4X4X4X4X4X4X4X4X4X4X4X4X",
"4X4X4X4X4X4X4X4X4X4X4X4X4X4X4X4X4X4X4X4X4X4X4X4X4X4X4X4X4X4X4X4X<X4X4X4X4X4X4X4X,X[ o 8 r e @.|.<X4X4X4X4X4X4X4X4X4X4X4X4X4X4X4X",
"4X4X4X4X4X4X4X4X4X4X4X4X4X4X4X4X4X4X4X4X4X4X4X4X4X4X4X4X4X4X4X4X4X<X4X4X3X3X3X4X4X+Xk.O.^ ! R.&X4X4X4X4X4X4X4X4X4X4X4X4X4X4X4X4X",
"4X4X4X4X4X4X4X4X4X4X4X4X4X4X4X4X4X4X4X4X4X4X4X4X4X4X4X4X4X4X4X4X4X<X4X<X3X4X4X3X4X4X2X2X2X<X<X&X4X4X4X4X4X4X4X4X4X4X4X4X4X4X4X4X",
"4X4X4X4X4X4X4X4X4X4X4X4X4X4X4X4X4X4X4X4X4X4X4X4X4X4X4X4X4X4X4X4X<X4X4X4X3X3X3X4X4X3X2X2X4X4X,X4X4X4X4X4X4X4X4X4X4X4X4X4X4X4X4X4X",
"4X4X4X4X4X4X4X4X4X4X4X4X4X4X4X4X4X4X4X4X4X4X4X4X4X4X4X4X4X4X4X4X<X4X4X4X4X4X3X4X1X4X2X2X4X$X4X5X4X4X4X4X4X4X4X4X4X4X4X4X4X4X4X4X",
"4X4X4X4X4X4X4X4X4X4X4X4X4X4X4X4X4X4X4X4X4X4X4X4X4X4X4X4X4X4X4X4X4X4X<X<X4X3X4X4X4X2X2X2X4X4X4X<X4X4X4X4X4X4X4X4X4X4X4X4X4X4X4X4X",
"4X4X4X4X4X4X4X4X4X4X4X4X4X4X4X4X4X4X4X4X4X4X4X4X4X4X4X4X4X4X4X4X4X4X4X4X3X4X<X4X4X2X4X4X2X4X6X4X4X4X4X4X4X4X4X4X4X4X4X4X4X4X4X4X",
"4X4X4X4X4X4X4X4X4X4X4X4X4X4X4X4X4X4X4X4X4X4X4X4X4X4X4X4X4X4X4X4X4X4X4X3X<X<X4X4X2X2X2X2X4X4X<X<X4X4X4X4X4X4X4X4X4X4X4X4X4X4X4X4X"
};
