/* XPM */
static char *_f93078e4e244e139743c4bde1dbccb0uO4tv9LM7Qzx9red[] = {
/* columns rows colors chars-per-pixel */
"64 64 256 2 ",
"   c #010101",
".  c #0B0001",
"X  c #02030B",
"o  c #03090C",
"O  c #09090A",
"+  c #090209",
"@  c #130101",
"#  c #1B0000",
"$  c #190709",
"%  c #040412",
"&  c #140C11",
"*  c #16161E",
"=  c #230201",
"-  c #2C0100",
";  c #280708",
":  c #340101",
">  c #3B0201",
",  c #3C0A03",
"<  c #390A08",
"1  c #390E14",
"2  c #33110F",
"3  c #440300",
"4  c #4B0201",
"5  c #4C0A01",
"6  c #470A07",
"7  c #520300",
"8  c #5C0300",
"9  c #540C01",
"0  c #5B0B02",
"q  c #580D0B",
"w  c #49140A",
"e  c #591408",
"r  c #461714",
"t  c #581814",
"y  c #540B11",
"u  c #640300",
"i  c #6B0400",
"p  c #640B02",
"a  c #6B0C01",
"s  c #650E0B",
"d  c #740301",
"f  c #740B00",
"g  c #7C0C00",
"h  c #7B0705",
"j  c #631202",
"k  c #6A1203",
"l  c #69170A",
"z  c #751301",
"x  c #7A1301",
"c  c #73150B",
"v  c #791B08",
"b  c #661612",
"n  c #761915",
"m  c #7B0E11",
"M  c #572714",
"N  c #462017",
"B  c #68200A",
"V  c #7B2504",
"C  c #6C2417",
"Z  c #7A2516",
"A  c #6E2F25",
"S  c #592023",
"D  c #684038",
"F  c #830D01",
"G  c #8C0D00",
"H  c #840700",
"J  c #980B00",
"K  c #841300",
"L  c #8A1301",
"P  c #841A02",
"I  c #8C1B02",
"U  c #861B0D",
"Y  c #931400",
"T  c #9C1500",
"R  c #941B00",
"E  c #9B1C01",
"W  c #99190C",
"Q  c #851913",
"!  c #951B15",
"~  c #A21500",
"^  c #A41B00",
"/  c #AC1B00",
"(  c #B21F00",
")  c #892507",
"_  c #9C2201",
"`  c #982607",
"'  c #882616",
"]  c #972712",
"[  c #973515",
"{  c #97330C",
"}  c #A52401",
"|  c #AC2302",
" . c #A12A01",
".. c #AC2A01",
"X. c #AB2A0B",
"o. c #A5290C",
"O. c #B42400",
"+. c #BA2501",
"@. c #B42B01",
"#. c #BC2B01",
"$. c #B82D0A",
"%. c #AB3100",
"&. c #AB390A",
"*. c #B53402",
"=. c #BB3301",
"-. c #BD3B01",
";. c #B93809",
":. c #A52C12",
">. c #A93415",
",. c #B73712",
"<. c #853523",
"1. c #93362C",
"2. c #C32D01",
"3. c #C62900",
"4. c #C43401",
"5. c #CB3401",
"6. c #C33B02",
"7. c #CB3C01",
"8. c #CC3B0C",
"9. c #C5370B",
"0. c #D43C02",
"q. c #DA3C00",
"w. c #D33803",
"e. c #C93B13",
"r. c #D13206",
"t. c #E33E07",
"y. c #CB3E20",
"u. c #BB4507",
"i. c #AC421A",
"p. c #BB4315",
"a. c #B74E11",
"s. c #B34A29",
"d. c #BB642F",
"f. c #904C2D",
"g. c #C54302",
"h. c #CC4201",
"j. c #C74B00",
"k. c #CD4B01",
"l. c #CB440B",
"z. c #D34202",
"x. c #DC4400",
"c. c #D44A02",
"v. c #DB4C02",
"b. c #DB4509",
"n. c #D6470A",
"m. c #CD5806",
"M. c #DC5300",
"N. c #DC5901",
"B. c #D75505",
"V. c #C84917",
"C. c #DD4D14",
"Z. c #D74715",
"A. c #DB5716",
"S. c #CD511B",
"D. c #E34D01",
"F. c #E54907",
"G. c #E35402",
"H. c #E35C01",
"J. c #EC5B01",
"K. c #E45A0A",
"L. c #E85408",
"P. c #F45C03",
"I. c #F65909",
"U. c #E54812",
"Y. c #E35314",
"T. c #E95918",
"R. c #F25B17",
"E. c #F24D0B",
"W. c #D96603",
"Q. c #D86D0A",
"!. c #E26300",
"~. c #EE6301",
"^. c #E46B01",
"/. c #EB6C03",
"(. c #EA650A",
"). c #F46401",
"_. c #F46B03",
"`. c #F3640B",
"'. c #FB650B",
"]. c #FE6A0C",
"[. c #F66908",
"{. c #EC7301",
"}. c #ED7B02",
"|. c #E77805",
" X c #F37403",
".X c #FC7303",
"XX c #F37C04",
"oX c #FD7B02",
"OX c #FF730B",
"+X c #FC7C0C",
"@X c #F3780B",
"#X c #EA6516",
"$X c #F36312",
"%X c #FE6B12",
"&X c #F96818",
"*X c #FE7313",
"=X c #FE7B13",
"-X c #FF741B",
";X c #FF7C1C",
":X c #F37617",
">X c #E97716",
",X c #D64D25",
"<X c #D55427",
"1X c #C55328",
"2X c #E95D24",
"3X c #FA5929",
"4X c #DD622A",
"5X c #EA6924",
"6X c #F86726",
"7X c #FE7925",
"8X c #EE6F32",
"9X c #BF6A45",
"0X c #DB6F41",
"qX c #EA8503",
"wX c #FD8403",
"eX c #FC830C",
"rX c #FE8B0D",
"tX c #F68807",
"yX c #FE930C",
"uX c #FF8313",
"iX c #FE8C14",
"pX c #FE831B",
"aX c #FD8C1C",
"sX c #F58B15",
"dX c #FD9315",
"fX c #FF931B",
"gX c #FE9C1B",
"hX c #F79814",
"jX c #EC9010",
"kX c #FFA31B",
"lX c #FF8C23",
"zX c #FF832A",
"xX c #FF8C2B",
"cX c #FB8422",
"vX c #FE9223",
"bX c #FF9C23",
"nX c #FF9C2B",
"mX c #FF932A",
"MX c #FF8B35",
"NX c #FF9734",
"BX c #FFA224",
"VX c #FEAA25",
"CX c #FFA32B",
"ZX c #FFAA2C",
"AX c #FBB12A",
"SX c #FEA834",
"DX c #FFB33A",
"FX c #FEB836",
"GX c #EAAE2A",
"HX c #FF9744",
"JX c #F99450",
"KX c #FFB443",
"LX c #FFB357",
"PX c #D0875E",
"IX c #FFC445",
"UX c #FFD070",
/* pixels */
"                                                                                    O O O                           O O         ",
"                                                                                    O O                             O O         ",
"                                                                                O O                                             ",
"                                                O                               O                                               ",
"                                            O   O                                                                               ",
"                                          O   O                                                                                 ",
"                                                                                                                                ",
"            O O                                                                                                                 ",
"      O O                                                                                         o O O                         ",
"                                                                                                    O                           ",
"                                                                                                O O                             ",
"                                                                O                               O                               ",
"                                                            O O                                                                 ",
"                                                          O O   o                                                               ",
"                                                                .                                                               ",
".                       o O O .               .       .                         . . . . . . . .                                 ",
"@ . X   X           o o %   .   .   .     . . . . . + @ + . .     o       X + + # # - # @ # N = .   . O     O     o O o X   X   ",
"@ .   X             o o X X   . .               +   + + . . . .   o       X X . - 9 l 3 , ; , 2 = . . .         o o o     X X   ",
".     o o o     .   X X X     .               o o o o o             . . o X X $ A <.<.j t t t M N = # @ . .   O o o             ",
"              . .   + X           X X     X       o   o   X + X       .     & 1 A v Z c 7 7 B e w , r 2 = .   &             .   ",
"  o           + + + +                 + . . . . .           + + o X   . . $ 1 1 > 9 ' ' 7 7 a a 4 9 t S N @ .   o           . . ",
"o     .   . . + % X + .             . @ ; 1 1 r , = # @ . . @ +   o   . # ; ; ; 4 l Z ' Z c u f 8 p 4 t r # . .         . . . . ",
"    . @ @ .   X % X   . .     o     . ; 1 S S C e 9 3 : ; = ; + + . . . $ $ ; : b b k v Z v p a c c 8 5 < ; @ .       . . . # # ",
"  @ = = = #   X % X o .           . + + ; r t y b j 9 5 3 : ; $ @ @ . @ @ @ = < q 4 p ' k c c k ' U n 9 r < @ . .   $ $ ; = = = ",
"# = , A M = $   o o           % o % + & & . # : : 5 3 C 3 > ; ; # # ; # @ # = w > 4 9 7 4 p e 4 z i n e t : @ # $ @ $ ; 1 r < t ",
"- : A f.A , .   o             o X X * O   $ @ # : 5 9 0 e w 3 ; r A = ; - - w : 6 > > 3 7 q t 4 a i Z s t > = # # # 2 - - < 6 A ",
"> b 1.<.A e ; O   o             O         @ = M B 4 4 8 Z C 6 > D M # w A A 7 > > : > > > 4 b n z x ' Z C 9 : : - : < > : 3 y S ",
"n 1.n p k 5 A A @                   . . = = 5 PX9Xv i [ { ) e V <.3 : : k s.k e 3 < 3 3 9 C C j x P ) V V j 7 4 5 5 6 4 y 4 4 y ",
"A n 8 a a > j f.- # .         .   2 # - f.d.a.p.&.g ` d.u.a.Q.JX{ 8 7 3 3 9 ) k 8 y b n [ 1.C 7 x ` I ) ) P f a k a 0 0 q 7 4 3 ",
"b 8 j p 8 4 u s.> ; @       . . . @ , d.8Xg.g.l.H F a.u.u.Q.NX7X>.d 8 j j 3 i.) c s l Q ] I p k ` o._ X.:.:.I K P v a p 8 7 4 7 ",
"e 9 e 4 8 U s.9Xp , # .   X . . # w { 1XA.z.b.#.d P i.{ A.-X-XF.p.' u 8 P _ 1X{ ' l 7 u L I f x E ..T | @.X.^ G R ] f z j 0 0 0 ",
"5 0 7 p ) >.1X` [ C 2 @ o   . @ r Z [ ,.Z.5.+.z.@.V.i.S.8X#Xt.r.;.:.u U p.X.,._ P v g d L I Y ` } $.~ ..@.;.$.^ X.` g x v l j 0 ",
"7 4 7 f I >.i.8 9 M ; . . + @ ; 7 Q >.E Y.#.5.7.5X2X0X4X,X^ T ~ <Xp.K _ R E ,.>.` `  .I R ` ] ` ,.( ~ #.2X;._ _ o.>.' P c c p p ",
"c P L L E ,.{ 7 5 , # # $ @ @ - 8 ` >.V.&Xc.D.J.R.4.Z.| o.Y R d 4X4X} L G E ..| E E } _ o.R G >.9.( 4.n.-.g.u._ ) I U c a 8 u 0 ",
"p.<XV.e.9.;.o.x 5 : # $ $ . . < c ..6.#X(.J.J.-X0.=.@.Y Y h L L %.cX7XB.g.g.g.-.*.} E T } R R <X3XE.F.2X#X8X..u i 8 p s 4 3 5 t ",
"zX5XB.T.T.@._ ] j 3 , < ; # ; 5 ) -.B.7XJ.`.).-XK.T G ;.` _ &.{ m.fX;X#X5X6XT.l.T =.l.@..._ E e.U.F.F.R.T.l.` i p 7 7 t > : w r ",
"SXfXW.:X:X=.Y _ f 8 7 3 3 4 k a  .h.&X7X].].%X*XK.6.E m.m.m.Q.>XlX=X`.H.#XT.C.4./ C.8X,X$.~ T $.t.r.U.Y.6.;.s.{ Z e t t > - < < ",
"gXVXgXfX>X-._ _ :.' U f g >.d.V.6.c.&XJ.D.P.].-X(.j.m.W.W.W.SXaX_.v.v.J.R.x.z.4.Z.Z.,Xe.| ~ T +.3.3.5.4.V.1Xi.p B 0 w w , : , : ",
"|.kXVXdX@XN.j...X.o.Y G Y ,.2X2XY.U.U.q.w.D.J.*X=X[.M.j.iX+XfX!.).0.w.x.6XT.Z.5.e.+.$.$./ ^ T T ~ 9.9.,.1Xi.) j 8 4 4 3 5 6 6 6 ",
"qXyXyXrXZXHX7Xj.*.=.O.+.+.e.U.Y.F.F.D.D.x.P.G.*XNXNXcXpXlXpXlXJ.v.P.%XR.6XU.+.2.O.( Z.Z.@.$.=.@.9.$.| _ d i u 8 7 0 9 5 7 4 4 4 ",
"tX}.}.gXnXvXcX7Xj.z.5.3.3.w.t.x.5.v.'.-X%X].pXxXMX7X;X&XL.v.F.F.x.`.-X0.6X6X2.#.#.l.C.l.=.6.k.6.Z.;...R F f c a 8 p n n l p p 8 ",
"^.^.^.fXbXfXaXpX;X%XI.w.3.q.E.q.x.J.`.P.'.-X-X`.K.N.=.#.b.F.r.t.x.G.R.7.7.7./ @.#.@.=.g.k.j.6.*.*.} %.V.>.I U ' p s l c l l k k ",
"/./.|.bXDXSXCXfX+X_.P.J.F.I.I.I.R.$XL.G.R.c.@.E k.k.@.| 0.U.t.3X6Xb.z.7.6.l.O./ ..^ ^ -.B.#X(.M.G.z.z.6.| L h d i p p s y b b b ",
"`.`.(.lXZXbXbXdX}._.H.~.-XP.c.$X%XI.D.F.T.k.~ R S.l.S.Z.5.r.U.t.U.l.4.9.9.e.O.,.^ ~ ~ / =.#XMXMX7X&XF.4.O.X.` G i u u 8 q y y y ",
"P.].*XlXaXjXsXgXgXtX^.{.aX|.W.cX`.-XK.4.6.,.X.>.` L ` p.9.7.z.2.e.e.( / #.e.$.y.~ ~ ~ ~ @.Y.7X7X%XD.w.w.8.$.| ] K x k j q y 6 6 ",
"].OXOXfXCXVXAXVXZXtXtXeXsXfXbXsXpXcX$X6.| G F ! u u i F  .6.z.C.Z.2.J J ( V.e.e.~ J ^ 4.l.c.G.G.I.'.L.b.8.$./ :.] ) v j 0 4 3 < ",
"oXoXjXBXFXFXFXZXZXrXiXiXeXfXfX{.wXoX_.K.*.F d m m m a i K E *.C.8.#.4.$./ ..Z.e./ ~ #.C.T.L.G.c.z.L.b.+.( | ^ E _ ` V k 0 5 3 > ",
"wXBXFXIXIXGXGXAXFXgXrXiXCXBXfXdXoXoX_.c.@.Y F d n 8 s c u P %...2X4.L.T.0.7.2X4.O.#.8.C.R.$XI.D.z.z.5.#.#.O./ ..Y I P x k 9 6 3 ",
"iXZXZXKXDXGXFXFXjXqXtXVXVXfXgXiXiX).J.v.h.#.J G h c b j v V R $.5Xb.x.Y.U.2X3Xe.+.+.e.+.8.w.q.3XZ.e.2.2.+./ / J +.O.$.R x z j 7 ",
"oXaXaXDXDXFXFXDXjXyXkXyXtXtXsXvXlX_.~.`.&XT.+.T L c l 9 p z G ^ 8.L.z.b.U.5.4.5.+./ O.O.r.b.b.q.t.8.#.8.l.4.4.5.3.5.Z.@.K x k l ",
" X XqXSXKXIXAXhXkXtXBXiXoXqX|.DXnX=X_._.).J.7.=.:.x l 7 u f G ~ =.T.#.2.Y.0.w.Z./ / #.4.+.q.q.5.2.4.+.9.C.C.2X6Xb.8.Z.>.I z j b ",
"N.N.@XCXDXFXVXQ.|.dXbXXXeXmXiXfXpX+XoXwX.XH.c.7.X.g a 8 8 g Y ^ @.A.O./ 7.w.w.3.+.5.z.n.4.b.z.5.7.M.7.=.7.n.Y.#XY.9.;.X.I x s l ",
"7.c.@XaXnXAXgX^.{.uXOX_.pXvXuX XeXXXoXwXwXoXP.D.e.L f p i h Y ~ R 4X8X2Xn.0.R.R.z.L.c.v.G.(.c.7.z.G.M.7.h.h.h.Y.Y.=...E P z u 0 ",
"h.c.@XeXdXBXbX}.nX Xc.[.pX_./. X}.wXwXwXwXoX=X7XS.} ) v x K G T E _ } 9.Y.$X6X&Xx.R.H.J.(.H.M.!.z.M.H.J.H.c.7.#Xc.*.} ` g i 8 s ",
"J.M.=XuXiXgXgXXXmX+X).G.J._.~.H.W.wXyXgXrXoX*X%XC.*.` ) ] U G W K G _ @.2.5.F.-XD.'.*X;X*XN./.=X/.J.*X;X$Xv.7.G.c.-.%._ x d u i ",
"`.k.+XiXfXgXfXeXpX`.%XJ.G.J.M.H.fXBXrXrXoX.X*X$Xc.*.) ) [ Q h ! U K R T #.q.3.J.%X[.pXNXvX/.fXaXOX[.;X;X'.J.v.N.N.6.*.} I K f g ",
"%X:X{.nXeXrXtX+X XlX*Xv.k.c.6.lXSXuXuXuXaX+X*XD.@._ g V Z p m m Q ] W J / w.x.q.P.J.OXnXSXfXvXnX=XP.].cX-XG.'.zX7X#Xj.u.V.p.` ` ",
"mXcX^.pXfX^.m. XvXmXcXk.@.6.zXMX(.(./.@X=X=X*Xc.@.L f a p u u d Q ! W / +.q.I.P.J.c.H.aXSXSXZXbX_.J.J.'.].].-X`.pXHXMX>X8Xa.R ,.",
"KXmX@X@XuXm.k.@XnXpX=Xj.} (.MX#Xc.n.j.^.uXuX).#.~ H g 8 7 8 u Q H Y :.$.2.x.I.%X).M./.vXnXZXZXfX+XJ.D.'.'.J.G.7.g.@XxX7XHXA.} V.",
"KXvXvX=XN.j.W.uX=X^.@X*.m.NXA.l.7.4.4./.uXuXv.7.T G g i u a x ] G G ( 9.+.5.I.].+X_.eXbXdXhXgXsX XJ.J.).P.v.H.N.!.W.:X:XLX7X-...",
"bXiXaX:Xk.k.!.lX{.j.iX-.xX5Xj.l./ +.K.:X@XuXG.#Xl.X.d i x ) ] _ E J / 2.3.w.P.].=X XeXdXyXhXhXqX X+XOX~.c.H.uX=XmXsXcXsXLXMXB...",
"rXiXeX(.K.M.c.mXeXm.tXXXxXj.;.^ +.w.&X(./.aX[.$X6X,XY h h L >.X.| / ( 3.5.D.].OX.XoXuXtXjXhXkXkXrXeX+XoX~._.eXXX|.fXsXNXUXHXB.7.",
"}.tXpXN.K.B.M.xXiX}.}.ZXW.u.} E b.Y.K.k.M.=X7XL.C.C.;.} G L / $.$.2.3.5.F.%X*X.X.XiXdXtXhXkXVXAXyXXX XdXiXuXrX|.Q.hXjXSXLX7XB.9.",
"m.^.nXN.c.n.7X;X+X{.yXgXu. .^ S.Y.L.7.-.j.N.NX7X=.6.S.;.^ X.~ +.e.U.F.t.I.-X;X.XeXfXtXqXkXFXAXVXgXrXoXrXaXgXgXW.qXqXQ.vXcXW.T.=."
};
