/* XPM */
static char *d41a5786df194d8199bf34849fb628b8Y7OlZRMQyLnXdDUu[] = {
/* columns rows colors chars-per-pixel */
"64 64 254 2 ",
"   c #0C0102",
".  c #030507",
"X  c #130400",
"o  c #1C0100",
"O  c #150A03",
"+  c #180D08",
"@  c #1C130B",
"#  c #1C1309",
"$  c #1C1513",
"%  c #1D1C1C",
"&  c #171817",
"*  c #0E1014",
"=  c #230100",
"-  c #2B0200",
";  c #2B0B05",
":  c #3B0200",
">  c #370702",
",  c #22160C",
"<  c #381508",
"1  c #241C17",
"2  c #371918",
"3  c #3A0C16",
"4  c #1A251D",
"5  c #28231C",
"6  c #3A2311",
"7  c #1A1D22",
"8  c #1E2225",
"9  c #232324",
"0  c #2A2523",
"q  c #23252B",
"w  c #25292D",
"e  c #2B2B2C",
"r  c #292927",
"t  c #352C29",
"y  c #38352D",
"u  c #2C2D32",
"i  c #282B33",
"p  c #332C34",
"a  c #2D3135",
"s  c #2D333A",
"d  c #2F3C3C",
"f  c #323334",
"g  c #33353B",
"h  c #343A3C",
"j  c #3A3A3C",
"k  c #3B3735",
"l  c #2D302F",
"z  c #2C1720",
"x  c #440200",
"c  c #4B0300",
"v  c #470B03",
"b  c #540201",
"n  c #5C0B01",
"m  c #570803",
"M  c #471505",
"N  c #581703",
"B  c #471615",
"V  c #591915",
"C  c #560416",
"Z  c #650602",
"A  c #671703",
"S  c #761A03",
"D  c #6A1A17",
"F  c #720C0A",
"G  c #4B2507",
"H  c #5A2601",
"J  c #562917",
"K  c #692705",
"L  c #7A2805",
"P  c #682718",
"I  c #772917",
"U  c #793318",
"Y  c #6E3209",
"T  c #6F1D23",
"R  c #463A38",
"E  c #4F2F2B",
"W  c #753625",
"Q  c #712F29",
"!  c #3C413B",
"~  c #46433B",
"^  c #584239",
"/  c #734631",
"(  c #7D410F",
")  c #353B43",
"_  c #3B3D44",
"`  c #383944",
"'  c #2F3541",
"]  c #443D47",
"[  c #563D46",
"{  c #603E46",
"}  c #3C4245",
"|  c #3C434B",
" . c #3B4648",
".. c #3E4752",
"X. c #424344",
"o. c #44444B",
"O. c #4B434D",
"+. c #494947",
"@. c #56464A",
"#. c #434552",
"$. c #444B54",
"%. c #4B4B54",
"&. c #494C59",
"*. c #544B54",
"=. c #5C4D5A",
"-. c #564A55",
";. c #45535B",
":. c #4C545C",
">. c #495255",
",. c #53545D",
"<. c #5B525D",
"1. c #575859",
"2. c #4F514C",
"3. c #634649",
"4. c #654C58",
"5. c #67565B",
"6. c #72585B",
"7. c #6D524C",
"8. c #6A625C",
"9. c #716254",
"0. c #4C5562",
"q. c #4B5963",
"w. c #525664",
"e. c #5A5562",
"r. c #535B64",
"t. c #5A5A65",
"y. c #545B6A",
"u. c #5A5D6B",
"i. c #525669",
"p. c #4E5466",
"a. c #6B5964",
"s. c #665966",
"d. c #745B63",
"f. c #745A66",
"g. c #644F60",
"h. c #5A636C",
"j. c #576369",
"k. c #5C6573",
"l. c #5D6A74",
"z. c #5E6C7A",
"x. c #566573",
"c. c #5F717D",
"v. c #67656A",
"b. c #756768",
"n. c #626B75",
"m. c #636E7B",
"M. c #696876",
"N. c #736A77",
"B. c #65727C",
"V. c #6B747D",
"C. c #697378",
"Z. c #787578",
"A. c #77716D",
"S. c #861A01",
"D. c #86190D",
"F. c #872802",
"G. c #863604",
"H. c #983A04",
"J. c #893716",
"K. c #953A16",
"L. c #942B09",
"P. c #A73B11",
"I. c #8B3528",
"U. c #A53A28",
"Y. c #974703",
"T. c #96451A",
"R. c #8D4C12",
"E. c #A94904",
"W. c #A44816",
"Q. c #AF540E",
"!. c #B16618",
"~. c #98462B",
"^. c #9A5429",
"/. c #984638",
"(. c #8C4B31",
"). c #A75A28",
"_. c #A34C37",
"`. c #AD552E",
"'. c #B46B30",
"]. c #9D6B3A",
"[. c #C2540C",
"{. c #C76E16",
"}. c #C35923",
"|. c #C7792A",
" X c #C77535",
".X c #D47A35",
"XX c #CD6D2E",
"oX c #E57C2B",
"OX c #9B4946",
"+X c #AC574D",
"@X c #90664F",
"#X c #B66B47",
"$X c #887670",
"%X c #CE744B",
"&X c #E07744",
"*X c #903A43",
"=X c #D68732",
"-X c #EA9130",
";X c #FBAF3A",
":X c #DB8214",
">X c #8E847C",
",X c #D78A51",
"<X c #EF914D",
"1X c #FFB04F",
"2X c #EA916C",
"3X c #FFB475",
"4X c #FFC05C",
"5X c #657482",
"6X c #6B7682",
"7X c #6D7984",
"8X c #6C7C8A",
"9X c #667886",
"0X c #727C84",
"qX c #727E8A",
"wX c #767583",
"eX c #857A81",
"rX c #75828C",
"tX c #7A848A",
"yX c #738493",
"uX c #7A8692",
"iX c #7C8B96",
"pX c #6F808C",
"aX c #86888A",
"sX c #838B94",
"dX c #84929D",
"fX c #8B9397",
"gX c #97908F",
"hX c #A89994",
"jX c #B3A49A",
"kX c #8A99A5",
"lX c #939BA5",
"zX c #97A3AB",
"xX c #9CA9B3",
"cX c #9BADB5",
"vX c #A8A7A8",
"bX c #B8ABA7",
"nX c #A7B3BA",
"mX c #B6B8B5",
"MX c #A8ADB4",
"NX c #C6B8B1",
"BX c #C9A48A",
"VX c #CDC5BC",
"CX c #FFCAA8",
"ZX c #AAB9C3",
"AX c #B2BDC8",
"SX c #B5C3CA",
"DX c #BACAD5",
"FX c #B8CBD4",
"GX c #BFD2E0",
"HX c #C3CDD4",
"JX c #C5D4DE",
"KX c #D3CECB",
"LX c #C9D8E2",
"PX c #D1DEE7",
/* pixels */
"ZXZXSXZXzXkXiXuXqXwX5XM.M.wXwXwX5XeXkXxXZXAXJXPXPXPXLXLXHXAXAXAXMXxXzXlXeX6Xm.u.h.r.0.r.h.n.n.k.V.6XqXtXqX9X8XiXyX8X8X8X8X9X5X5X",
"ZXnXZXcXkXdXyXqX6Xm.m.M.5XN.N.wXwXwXeXlXxXZXAXLXPXLXLXLXJXDXAXAXZXxXxXlXsX8Xm.k.y.r.0.r.y.h.n.k.V.V.wXqX9Xz.9XyXiXqX8X8X9X5X5Xx.",
"cXcXcXkXdXqXwXwXV.M.v.M.M.wXN.N.wX5XwXqXkXZXAXJXLXLXLXLXJXDXAXAXAXMXnXzXdXqXM.k.r.w.w.:.y.u.v.k.n.B.V.6Xm.z.5X8XyXyX8X8X5X5Xx.z.",
"cXcXkXiXqXqX6X6XV.M.M.f.s.f.M.s.M.s.5XwXeXZXAXJXLXJXJXJXDXGXDXFXAXZXAXZXlXtXV.k.r.w.w.w.w.w.u.k.n.n.V.6X5Xz.5X8XyXyXiXyX8X5Xz.x.",
"iXiXsXuX6X6XwXV.N.N.M.f.N.N.f.f.g.k.M.s.qXkXxXZXDXHXLXGXGXGXGXFXFXZXFXSXxXiX6Xk.h.y.w.w.w.r.t.h.v.l.C.7X6Xz.5X9XyXyXiXiXyX8Xm.k.",
"iXiXqXqXM.M.V.N.v.M.f.f.f.f.f.f.s.s.wXwXwXeXlXxXAXAXGXLXGXGXFXFXFXFXFXSXxXsX6Xk.h.y.y.w.w.r.y.j.r.h.n.V.5Xm.z.9XyXyXyXrX8X6Xm.l.",
"9X5X5X6XM.v.M.v.f.s.f.f.f.f.f.f.f.N.N.wXeXsXlXMXZXAXGXLXGXGXDXFXFXFXFXSXzXuX7Xn.k.h.r.w.w.w.r.1.r.r.l.B.B.m.c.9X8X8X9X9X9X6XB.m.",
"5X5X5Xm.u.u.s.e.s.s.f.4.6.f.f.f.g.f.f.wXeXeXlXxXAXAXAXDXDXGXJXJXFXSXSXnXdXpXB.m.k.j.q.:.r.r.q.>.:.r.h.n.m.l.B.9X9X9X5X5X7X5Xm.k.",
"k.x.v.n.u.,.<.e.s.g.5.a.d.f.d.6.f.f.g.$XeXeXsXvXmXMXSXHXSXHXJXHXFXSXcXfXiXC.C.7XC.j.j.1.;.:.q.:.:.:.h.n.m.l.5XuXyXyXyXqX8X8XV.n.",
"y.y.y.h.t.:.*.=.=.=.4.5.6.6.6.6.f.f.f.N.wXeXgXlXxXmXSXAXmXHXKXmXxXcXzXtXC.C.0XC.0Xl.q.;.q.q.q.>.r.r.h.n.m.m.6XyXyXkXkXiXqXqX7XV.",
"j.r.w.0.0.&.%.*.-.=.5.a.f.f.@Xg.4.f.f.b.f.wXeXgXhXvXbXmXKXNXmXNXKXmXhXaXC.8.v.v.C.C.j.j.1...>.:.1.,.j.h.n.B.8XrXdXkXlXdXyX7XV.M.",
"x.y.0.:.&.#.o.o.*.*.=.5.f.f.g.g.6.5.4.6.f.$XeXgXhXvXmXNXNXbXNXKXbXhXjXVXVXjXgXaX8.8.8.j.j.1.>.$.:.1.j.h.k.V.0X8XyXiXkXyXrX0X7X6X",
"x.j.q.:.:.>.$.#.%.,.5.s.a.g.g.g.d.5.6.b.b.b.9.$XhXNXNXjXhX$X7.Q ^ ^ R / 9.$XhXjXvXgXA.1.1.:.%.1.:.1.j.j.k.B.6X6X5X6X7X0XqXtXqXwX",
"j.j.j.j.j.r.r.,.t.u.s.s.f.M.s.a.6.6.d.6.9.b.>XjXjXhX$X^ < o - : = - = o o = ; t A.jXbXZ.1.<.1.>.>.:.r.h.n.M.6XqX9X9XB.6X0XqXV.n.",
"j.l.x.l.n.l.h.h.w.e.e.t.s.u.s.g.d.6.6.7.$XgXVXNXb.E X o > < v : M M v M B ; X = O 6 5.hXhX5.j v.%.>.r.n.V.m.7XuXuXqXV.5X7XV.n.j.",
"x.l.c.c.B.m.n.k.r.t.u.t.u.s.s.a.6.5.7.b.jXNX>X6 o - < M M V P P N P v v Q Q B > ; o X t aXhXN.O.t.j.v.V.C.n.C.qXyX8X5XB.7XV.n.h.",
"x.l.c.9X9Xz.z.l.n.t.v.t.<.<.5.s.a.f.1.mXVX9.X - : C V C N A D ~.J.J.Q b OXT m N N M > o = 5.bX1.>. .} f j.C.n.rX7X9X9X9XpX8XC.n.",
"c.l.x.z.m.5XB.B.k.r.r.<.%.@.-.d.f.4.mXmX! O > : D F I.C D I K.G.`.^.U.+XOXD b A U A N : = ; R @.% w . * 8 C.Z.B.8X8X8XpXpX8XV.n.",
"x.x.y.x.5X5Xz.z.h.0.,.*.O.O.@.3.3.$XjX^   o M x I.T Q *XD +X%X,X%X%X+XOXC C I./.~.J./.V v = ; 3.8.1.8 . . ! V.l.8XpXyXiXrXpXV.V.",
"q.y.x.z.5X5Xz.k.h.r.,.o.*.-.R R 9.BX9.  , B N U F m D T D I.%X2X3X^.N Z m D OX~.L J./.D V v - o A.b.2.* . * j.9X7XyXiXiXiXrXtXV.",
"k.k.k.k.k.z.z.5Xn.y.<.*.-.-.+.3.jX$X= o J N m K.P.~.+X+X+XI.J.H.Q.Q.R.(.I.W /._.K.K.L Z D.D.Q C < 1.A.+.. * i c.pXiXkXkXdXtXV.C.",
"u.k.m.5Xk.y.x.k.l.r.:.,.-.R @.gXhX< o E Q ~.A F.}.,X%X+XOXU.L S !.4X,X,X^.^.T.G.G.F.F.`.%X+X%XI o E $Xb.r * 7 ;.rXyXkXlXdXrX7XC.",
"i.u.5XM.k.i.p.0.r.0.,.%.2.X.s.bXW ; B T U._.F.Q.XX.X'.n J.L %XXX-X4X:X=X|.Q.'.,XoXXX[..X<X&X&XK.> X ^ A.1.9  .;.pXyXdXkXdXtX7XC.",
"i.u.u.x.i.;.&.0.| ,.,.X.+.4.$XbX; - : c I.S.S.}.`.XXQ.S K A ).=X:X;X;X-X|.Y.|..X.X-X{.Q.oXXX}.F M X 6 $X5.v.tX..pXyXsXdXiXtX7XB.",
"k.u.i.i.i.i.i.p.0.&.%.%.X.X.bX7.X > m P D.S.Z P.}.%XH.H.R.( Y.=X-X;X;X=X( K Y.,XXX<X2XS.S.S.S.Z G G < ^ 8.v...pXrXiXfXtXtXC.B.c.",
"s.i.e.t.y.y.i.i.i.&._ o.X.2.hXt o B A I.D.S.D.S.I.D.Z E.=X!.!.=X;X;X4X=XY.Y F.).`.<X}.[.P.L.S.D.].2X6 ^ 8.! 7XpXuXiXiXtX7XC.C.c.",
"w.t.t.i.i.i.i.p.0.0._ #.k 8.$X+ 2 : P S F U.I.D.S W.!.|.|.|.=X,X1X-X=X:XY.L H..X{.H.L.oXoXoXD.D.BXCX/ J 8.1.0XC.tXuXuXtXV.B.l.z.",
",.e.u.s.i.p.p.p._ :.o.+.k A.v.X 3 C b I _.%X%X_.#XY.E.-X;X!.].,X1X-X=X{.Y.G.Y.'.E.{.1X1XXX[.P.&X2X,XW ; 5.tXl.B.C.rXtXtXwXC.z.x.",
"-.e.k.M.u.i.p.&.&.#.` | j aX5.  3 C b S I.`.#X+X,X,X.X{.{.).^.( R.=X=X!.!.'.'.Y.F.1X1X;X-XH.H.&X%X).H > @.v.C.c.C.0XsXaXrXV.m.x.",
"-.e.s.s.u.y.i.p.#..._ ] h $X~ X 7.T I.I m A Y (.).`.Q.L.H.).^.H > H ( ^.'.,X,XR.F.-X-X:XoX}.L.W.T.K M - ~ 8.j.x.B.tXfXfXsXpXm.x.",
"*.-.e.e.t.i.i.i...` .._ j A.k , (.(.~.(.W c Q W A J. XP.S K H H M M N ( #X#X%X'.XXXX[.Q.E.-XF.F.S.b N = E C.q.c.C.tXfXfXuX0Xm.x.",
"%.*.&.%.&.&.p.&.p.' ` ` X.Z.y o M m m x P V V (.(.~.2X2X%X#X].(.Q H G (.#X#X#X`.H.oXE.P.Q.}.S.Z W.'.^.M R v.j.9XpXtXsXaXtX7X5Xz.",
"-.] ] ` ` p.i.p.&.$.] o.R 8.R 6 ].).T.K : B T D _.#XP.L.`.'.].]./ 7.P U ^.#X#XU ~.S K.W.U.P.Z S..X<X,XP ^ A.v.7XqXuXsXtX0XC.z.c.",
"=.=.&.] ] #.#.;.%.#._ o.y 2.E G =X|.'.^.N v c b Z `.L.L A x : # M : W N n _.A A K.L S S.S.S.Z L.<X&X XN 7.v.M.qXqXuXsXaXtXV.B.c.",
"=.=.[ #.&.] #._ #.$._ _ k R ~ G !.!.=X XL b c b F.%XT.L Y H H H H / Y P J V P n F.P.F.F.S.Z b K.,X&X).M @Xt.v.5XqXrXtXtXtX7XB.c.",
"g.g.=.&.&.p.#._ } #.] j R ] @.< Y.Q.|.'.G.n Z A ~._.^.Y Y Y J R.( R.( G M M N A S.Q.Q.E.L.F.Z D S G.K - 7.%.h.5X0XwX0XwXC.c.c.l.",
"s.f.s.i.=.&.&.` _ o.| ] ] t R 2 G Y T.G.A Z A F U U W (.(.Y P @XU M W = - : N K.Y.E.{.!.Q.~.Z Z A L N E 6.+.&.l.C.C.C.C.C.n.z.l.",
"s.M.s.g.e.e.&.#.#.` o.o.g + 0 E o v m x b F I Q +X*XV P U c N T.J.N > < G H ^.|.{.Y.Q.Q.( L b C x : - E @.X...x.x.l.v.n.C.n.B.c.",
"s.s.s.g.e.i.:.&.] s _ u &   1 @.= - v x T I.OXOX+XW : x N n L ~.^.N G K Y T.!.{.=XE.G.G.n m C C v > 2 7.R g _ ;.:.j.n.C.C.m.c.5X",
"s.s.s.e.w.=.#.| _ g j * . & k 3.2 3 B C Q Q I.OXQ V B : x K S ~.^.R.R.'.Y.!.Q.Y.W.W.A A c b C C : 3 3.6.q s $.| >.j.v.C.n.n.l.z.",
"f.g.=.=.w.-.&.&._ g w * . & j p @.> c C A /.OXP x B 3 > > v A J.R.!.,X<XQ.H.`.`.~.I.b b m b Z N E X $Xp e ) } >. .:.j.j.j.j.j.h.",
"s.g.g.=.=.&.&.*.%._ q . . & p 0 4.E B x m Z I c : - - > V I I K.R.Y.'.'.E.L.T.L.J.b Z F Z A K P X [ 4.t p ' | | ..>.1.:.q.r.r.q.",
"s.g.=.p.-.*.*.] o._ s & . * w ] p f.3 B V v x x : > > N N U J.L.J.b v A J._.J.n x Z F Z Z A M G t a.q q g s ` ) ..>.>.:.:.:.:.:.",
"g.g.=.[ *.-.-.#._ o._ w . . . 7 7 p d.- 3 P - : : x M K J.'.Q.D.b c n b n N c K D Z Z Z K Y G < 6.j * p e g g `  .....>.;.>.%.>.",
"-.g.=.-.*.=.<.%.#.X.g w & . * & ! 4 k @.= < M M M K ^. XoX-XoXE.Z c V T / I.Y @X_.c n n Q Q z A.k * 9 f 9 e j ` ) ...... . .} } ",
"g.g.4.=.=.e.<.,.O.} a q 8 4 8  . .4 . y 7., E G M Y '. XXX[.[.Q.Q Q Q J B > > / (.K M / 2 k $Xg * 4 4 a p 9 j ` ) ......| ) d ! ",
"g.g.4.=.-.*.%.*.} } s 8 7 * * d 4 * &   t 6.B J P P I F.W.E.P.L.D E B > - - : W / W / E ^ $Xj   & r & 0 g p ` ] ` ` | |  . .! ! ",
"4.=.=.=.*.] ] ] } ' 8 8 s 8 * 4 l 4 ` p $ 2 4.3.E P P c J.K.G.N - ; = o ; = M Q J E y 8.Z.r   7 * 4 5 r r o.] ` ' ' ' ' !  .! ! ",
"4.f.4.[ @.o.` _ } s 8 8 w q w u g ] f u t $ @ y 6.3.J ; ; < < < 2 t t , , , , 2 R b.A.2.5 * $ % & 5 r y f f h } _ | ) | ) ) h } ",
"4.4.4.-.-.*.O.$.| h i 8 8 q 9 q w g g u q $ O % , ~ 8.8.^ t t E ^ [ t 5 t ^ 1.v.A.2.k & % 9 % & 4 5 e l e a g _ | | | ) ' d g h ",
"4.4.4.g.=.=.e.,.%.} i 7 7 7 9 9 u g ] X.j e 1 $ # O O 5 ^ 5.7.@.4.8.b.b.b.5.+.R 5 1 9 r r 5 9 r 0 0 y l a a g _ _ | ) ' a a a a ",
"4.{ 4.4.-.=.,.&.o.} a 7 7 9 q 8 9 w f h p t 5 @ , 1 , # X X , 1 t 0 1 @ 1 $ + @ 9 1 1 r 9 9 9 y t e f y p s h } ` ) ' s i i u a ",
"7.{ { 4.[ [ p.] ' ' ' i q u i 9 a h X.X.! ! ! 5 # # , # # # X           + + * $ t 9 9 1 0 r l r e t y a f f _ } '  .' i i i i s ",
"4.{ [ { [ ] [ ] ` ' q 7 z i s p h  .+.X.~ ! y 5 5 5 , , # #   O O O X X O O + 5 + 5 e e r l f f e e p f a g ` }  .' ' s i i i a ",
"{ { { [ [ ] ` ] ] p q 7 7 w p `  . .+. .2.~ ~ ~ t 1 , , # # O O X X O X + O + $ 0 5 9 5 r f f l y p e e e u g ) ' d ' i i i s d ",
"{ 3.{ [ [ ` p ] ' i q i p w w u l ! 4 l ~ ~ ! ~ y 5 , , # O O O O O X X + O + 1 $ % 9 9 r l f f f u e e w w a f s s s s s s s d ",
"[ 4.4.[ [ ] ] ` p q q i 7 7 q q d ! ! ! ! ! ! ~ y y 5 , , # O O O X     O + $ & 4 5 9 l f ! h a g g f g f u w w s a s ' | ......",
"[ { [ [ [ *.-.O.` ' i 7 7 i i q s !  .$.2.X.2.~ ~ y 5 , 5 , # O X O O O O @ $ & 8 4 a h }  . .h h g a f u w w w a s ' | ..;.q.;.",
"{ 4.@.[ ] *.*.O.] i q q 7 8 i g !  ...2.+.+.+.2.~ ~ y 5 , @ # + O O O + @ $ % 1 w d !  . ... . .j g g f u w w w w a s | $.:.q.q.",
"4.=.-.] [ ] #.] ] p i q 7 % p _ >.>.>.>.>.+.+.~ ~ ~ y t 5 1 @ # + + @ $ $ % % 9 8 d  . .$.>.>. .} _ g g f u e a a s ) | ..;.;.:.",
"-.=.*.] [ #.#.] h } a & & f +.!  .>.j.1.j.2.! ! ~ ~ ~ y t 5 1 , $ $ $ $ $ % 9 r i d  .....;.q...| } ` h f a f g } $.&.&.;.;.0.q.",
"=.4.=.-.&.&.] ` g a i r a X.+.a  ...:.j.1.1.2.2.2.~ ~ ! y 0 5 1 $ $ $ @ & % 9 w i  . ...q.q.q...| | _ _ h f g j o.&.0.0.&.;.q.y.",
"s.s.e.e.&.] _ g ) w a X.! y l f 2.;.q.2.1.j.8.j.2.~ ~ ~ k t 5 1 $ $ & % 4 5 w s d  . .;.;.q.q...$.o.$.X._ h j  .o.$.&.;...;.;.;.",
"=.e.e.e.=.] _ ` ) j  .! r 4 r ! >.q.j.j.1.j.1.2.2.2.~ ~ R y 0 5 $ % 1 4 9 e a d  ...;.q.q.q.q.q.;.>.%.$.X.} X.o.+.%.;.;.p.q.q.;."
};
