/* XPM */
static char *_1a2ffa1a74a4c34f947580729892450l6PDjSl2HobCBoVN[] = {
/* columns rows colors chars-per-pixel */
"64 64 214 2 ",
"   c #1C0900",
".  c #200D00",
"X  c #2C1302",
"o  c #2F1E0E",
"O  c #311700",
"+  c #391400",
"@  c #3F2404",
"#  c #3A210D",
"$  c #3E2511",
"%  c #421F04",
"&  c #512E06",
"*  c #502E12",
"=  c #56371B",
"-  c #5B391A",
";  c #512E10",
":  c #633D1A",
">  c #4D3725",
",  c #543A26",
"<  c #65441A",
"1  c #72461C",
"2  c #76491A",
"3  c #77440F",
"4  c #5D442C",
"5  c #57483A",
"6  c #66472B",
"7  c #734B22",
"8  c #6E502C",
"9  c #7A5323",
"0  c #604830",
"q  c #724F31",
"w  c #7A583C",
"e  c #3D4655",
"r  c #5C5753",
"t  c #65574A",
"y  c #715B46",
"u  c #766658",
"i  c #4A5364",
"p  c #53596E",
"a  c #575D73",
"s  c #655F69",
"d  c #5D6372",
"f  c #5D657C",
"g  c #5F6878",
"h  c #756B6A",
"j  c #63657C",
"k  c #626B7C",
"l  c #686875",
"z  c #78767B",
"x  c #6E6664",
"c  c #804C13",
"v  c #8F501B",
"b  c #92581B",
"n  c #865726",
"m  c #955B24",
"M  c #825C32",
"N  c #895E33",
"B  c #9C652C",
"V  c #996528",
"C  c #8E6533",
"Z  c #996939",
"A  c #A46B2C",
"S  c #A46B33",
"D  c #A96B33",
"F  c #A46C3D",
"G  c #A16636",
"H  c #A67235",
"J  c #AE7337",
"K  c #A4743C",
"L  c #AD743C",
"P  c #AA793F",
"I  c #B37A3C",
"U  c #81654B",
"Y  c #956A44",
"T  c #866C5A",
"R  c #9A7651",
"E  c #AC7A49",
"W  c #A77445",
"Q  c #B67B43",
"!  c #BA7D43",
"~  c #B27C4C",
"^  c #A57C51",
"/  c #887A6B",
"(  c #997E69",
")  c #857D78",
"_  c #BB824B",
"`  c #BC8B52",
"'  c #B3875C",
"]  c #BF9155",
"[  c #998677",
"{  c #988068",
"}  c #B08D6F",
"|  c #A28B78",
" . c #A7957A",
".. c #A28769",
"X. c #C28549",
"o. c #C58D53",
"O. c #C9935A",
"+. c #C49F73",
"@. c #C6926B",
"#. c #D0A16B",
"$. c #D0A97B",
"%. c #E2AF78",
"&. c #5D6780",
"*. c #656B82",
"=. c #686F84",
"-. c #676E89",
";. c #66718A",
":. c #6C748C",
">. c #697285",
",. c #767788",
"<. c #777A8A",
"1. c #6E7692",
"2. c #747B93",
"3. c #757C9A",
"4. c #7A7E9F",
"5. c #767A97",
"6. c #787EA1",
"7. c #7D8294",
"8. c #7D839B",
"9. c #9F8D81",
"0. c #818593",
"q. c #81879B",
"w. c #838A9D",
"e. c #898B98",
"r. c #8B929D",
"t. c #869195",
"y. c #9A989B",
"u. c #A79587",
"i. c #A69B93",
"p. c #BCA185",
"a. c #B9A392",
"s. c #858AA8",
"d. c #8C92A2",
"f. c #8C93AA",
"g. c #8E98A4",
"h. c #969AA9",
"j. c #9498B1",
"k. c #9CA2B3",
"l. c #95A0A4",
"z. c #B3B5BE",
"x. c #B3B1AE",
"c. c #D3AF8D",
"v. c #CDB18C",
"b. c #DDB180",
"n. c #C6B19E",
"m. c #C6A586",
"M. c #E4B886",
"N. c #C6BDB2",
"B. c #C8B5A6",
"V. c #EFC396",
"C. c #F1C89A",
"Z. c #F5CCA3",
"A. c #FFDBAF",
"S. c #FCD6B6",
"D. c #FFD9B6",
"F. c #EACFB0",
"G. c #AFB8C1",
"H. c #B5B9C6",
"J. c #BDC1CD",
"K. c #C2C7CE",
"L. c #DCDDCF",
"P. c #CACCD3",
"I. c #CDD6DF",
"U. c #DFDCD7",
"Y. c #E9D6C7",
"T. c #F3DECA",
"R. c #F2DED3",
"E. c #FFE5C4",
"W. c #FFECCA",
"Q. c #F7E9DB",
"!. c #FFF2D2",
"~. c #FEF3DA",
"^. c #FFF9DB",
"/. c #E8E2CC",
"(. c #D6D8E8",
"). c #DEE0EB",
"_. c #DFE6F0",
"`. c #F8EDE8",
"'. c #EEF1E0",
"]. c #FFFAE5",
"[. c #F5F1ED",
"{. c #FCF3EC",
"}. c #FEFBEC",
"|. c #EAEEFB",
" X c #E8ECF5",
".X c #EDF5FE",
"XX c #EBF3F7",
"oX c #F4F4F4",
"OX c #FBF5F4",
"+X c #FEFCF4",
"@X c #F3F5FA",
"#X c #FCF5FA",
"$X c #F5FBFE",
"%X c #FFFFFB",
"&X c #FFFFFA",
"*X c #FEFEF9",
"=X c #F9FAFD",
"-X c #FDFBFE",
";X c #FBFFFF",
":X c #F9FEFF",
">X c #FFFFFD",
",X c #FFFEFD",
"<X c #FCFDFF",
"1X c #FFFDFF",
"2X c #FCFFFF",
"3X c #FDFEFF",
"4X c #FFFEFF",
"5X c #FEFFFF",
"6X c white",
"7X c #FEFEFF",
"8X c #FDFDFD",
"9X c #FFFFFE",
"0X c #F5FAF4",
"qX c #EBECE6",
/* pixels */
"6X6X6X6X6X6X6X6X6X6X6X6X6X6X6X6X6X6X6X=XOX&X0X&X&X&X&X&X6X6X6X6X6X6X6X6X6X6X6X6X6X6X6X6X6X6X6X6X6X6X6X6X6X6X6X6X6X6X6X6X6X6X6X6X",
"6X6X6X6X6X6X6X6X6X6X6X6X6X6X6X6X-X-X6X&X+X&XOX&X&X&X&X6X6X6X6X6X6X6X6X6X6X6X6X6X6X6X6X6X6X6X6X6X6X6X6X6X6X6X6X6X6X6X6X6X6X6X6X6X",
"6X6X6X6X6X6X6X6X6X6X6X6X6X6X6X6X-X-X-X-X6XOX&X&X&X&X6X&X6X6X6X6X6X6X6X6X6X6X6X6X6X6X6X6X6X6X6X6X6X6X6X6X6X6X6X6X6X6X6X6X6X6X6X6X",
"6X6X6X6X6X6X6X6X6X6X6X6X6X6X6X6X6X=X6X6X6X6X6X&X&X&X6X6X6X6X6X6X6X6X6X6X6X6X6X6X6X6X6X6X6X6X6X6X6X6X6X6X6X6X6X6X6X6X6X6X6X6X6X6X",
"6X6X6X6X6X6X6X6X6X6X6X6X6X6X6X6X-X-X6X6X=X6X=X&X6X&X&X6X6X6X6X6X6X6X6X6X6X6X6X6X6X6X6X6X6X6X6X6X6X6X6X6X6X6X6X6X6X6X6X6X6X6X6X6X",
"6X6X6X6X6X6X6X6X6X6X6X6X6X6X6X6X-X6X=X-X6X6XoX6X6X6X6X&X6X6X6X6X6X6X6X6X6X6X6X6X6X6X6X6X6X6X6X6X6X6X6X6X6X6X6X6X6X6X6X6X6X6X6X6X",
"6X6X6X6X6X6X6X6X6X6X6X6X6X6X6X6X6X6Xz. X6X6X=X6X6X6X6X6X6X6X6X6X6X6X6X6X6X6X6X6X6X6X6X6X6X6X6X6X6X6X6X6X6X6X6X6X6X6X6X6X6X6X6X6X",
"6X6X6X6X6X6X6X6X6X6X6X6X6X6X6X6X6X|.s K.-X;X6X=X6X6X6X6X6X6X6X6X6X6X6X6X6X6X6X6X6X6X6X6X6X6X6X6X6X6X6X6X6X6X6X6X6X6X6X6X6X6X6X6X",
"6X6X6X6X6X6X6X6X6X6X6X6X6X6X6X6X=X(.>.0.=X-X6X6X6X6X6X6X6X6X6X6X6X6X6X6X6X6X6X6X6X6X6X6X6X6X6X6X6X6X6X6X6X6X6X6X6X6X6X6X6X6X6X6X",
"6X6X6X6X6X6X6X6X6X6X6X6X6X6X6X6X=XH.,.<.H.6X=X=X6X6X6X6X6X6X6X6X6X6X6X6X6X6X6X6X6X6X6X6X6X6X6X6X6X6X6X6X6X6X6X6X6X6X6X6X6X6X6X6X",
"6X6X6X6X6X6X6X6X6X6X6X6X6X6X6X6X;Xh.>.7.d.|.6X$X6X;X6X6X6X6X6X-X6X6X6X6X6X6X6X6X6X6X6X6X6X6X6X6X6X6X6X6X6X6X6X6X6X6X6X6X6X6X6X6X",
"6X6X6X6X6X6X6X6X6X6X6X6X6X6X6X6X=Xq.j d.0.J.6X;X6X6X6X6X6X6X6X6X6X6X6X6X6X6X6X6X6X6X6X6X6X6X6X6X6X6X6X6X6X6X6X6X6X6X6X6X6X6X6X6X",
"6X6X6X6X6X6X6X6X6X6X6X6X6X6X6X6X@X1.*.d.0.g.).6X6X6X6X6X-X6X6X6X6X6X6X6X6X6X6X6X6X6X6X6X6X6X6X6X6X6X6X6X6X6X6X6X6X6X6X6X6X6X6X6X",
"6X6X6X6X6X6X6X6X6X6X6X6X6X6X6X;X@X&.2.5.q.d.z.6X;X6X6X6X6X6X6X-X6X6X6X6X6X6X6X6X6X6X6X6X6X6X6X6X6X6X6X6X6X6X6X6X6X6X6X6X6X6X6X6X",
"6X6X6X6X6X6X6X6X6X6X6X6X6X6X6X6X@X*.2.2.5.h.h.).;X6X6X6X-X6X-X6X6X6X6X6X6X6X6X6X6X6X6X6X6X6X6X6X6X6X6X6X6X6X6X6X6X6X6X6X6X6X6X6X",
"6X6X6X6X6X6X6X6X6X6X6X6X6X6X6X6X|.4.=.q.1.h.w.k.;X6X6X6X6X6X6X6X6X6X6X6X6X6X6X6X6X6X6X6X6X6X6X6X6X6X6X6X6X6X6X6X6X6X6X6X6X6X6X6X",
"6X6X6X6X6X6X6X6X6X6X6X6X6X6X6X;X.Xd.k 7.1.s.8.8.(.6X6X-X&X#X&X6X6X6X6X6X6X&X6X6X6X6X6X6X6X-X6X-X6X6X6X6X6X6X6X6X6X6X6X6X6X6X6X6X",
"6X6X6X6X6X6X6X6X6X6X6X6X6X6X6X;X:Xt.g 1.3.6.s.s.j.|.6X&X#X+X[.6X6X6X6X6X6X6X&X&X&X6X6X6X6X6X6X6X6X6X6X6X6X6X6X6X6X6X6X6X6X6X6X6X",
"6X6X6X6X6X6X6X6X6X6X6X6X6X6X6X6X;Xl.d 7.6.6.8.j.>.J.;XoX&X6XOX6X-X6X6X6X6X6X&X6X6X&X6X6X6X-X6X6X6X6X6X6X6X6X6X6X6X6X6X6X6X6X6X6X",
"6X6X6X6X6X6X6X6X6X6X6X6X6X6X6X6X;XJ.k 7.1.6.6.s.:.h.XXXX6XOX6X6X6X6X6X6X6X6X6X6X6X6X6X6X6X6X6X6X6X6X6X6X6X6X6X6X6X6X6X6X6X6X6X6X",
"6X6X6X6X6X6X6X6X6X6X6X6X6X6X6X6X;XXXe.a 1.6.6.3.8.8.k.:X$X6X=X-X-X6X6X6X6X6X6X6X&X6X6X6X6X6X6X6X6X6X6X6X6X6X6X6X6X6X6X6X6X6X6X6X",
"6X6X6X6X6X6X6X6X6X6X6X6X6X6X6X6X;X;XH.i -.-.6.-.8.8.8.XX@X;X6X6X6X6X6X-X6X6X6X6X6X&X6X6X6X6X6X6X6X6X6X6X6X6X6X6X6X6X6X6X6X6X6X6X",
"6X6X6X6X6X6X6X6X6X6X6X6X6X6X6X6X6X:X X7.*.&.6.;.8.8.8.h.|.:X;X;X6X6X6X6X6X6X6X6X6X6X&X6X6X&X6X6X6X6X6X6X6X6X6X6X6X6X6X6X6X6X6X6X",
"6X6X6X6X6X6X6X6X6X6X6X6X6X6X6X6X6X=X6XK.a &.-.-.7.k.8.g J.:X@X;X6X6X-X6X6X6X6X6X6X6X&X6X6X&X6X&X6X6X6X6X6X6X6X6X6X6X6X6X6X6X6X6X",
"6X6X6X6X6X6X6X6X6X6X6X6X6X6X6X6X6X=XoX6Xg.g >.;.:.:.f.8.0.$X=X;X6X-X6X6X6X6X6X6X6X6X6X6X6X6X&X6X6X6X6X6X6X6X6X6X6X6X6X6X6X6X6X6X",
"6X6X6X6X6X6X6X6X6X6X6X6X6X6X6X6XoX6X6X@X.Xd p ;.>.;.j.g.r.G.6X=X6X=X&X6X6X6X6X6X6X6X6X6X6X&X6X6X6X6X6X6X6X6X6X6X6X6X6X6X6X6X6X6X",
"6X6X6X6X6X6X6X6X6X6X6X6X6X6X6X6X-X6X6XXX;Xz.e >.f &.8.8.h.) P.6X&X*X0X6X&X6X6X6X6X6X6X6X6X6X6X&X6X6X6X6X6X6X6X6X6X6X6X6X6X6X6X6X",
"6X6X6X6X6X6X6X6X6X6X6X6X6X6X6X6X6XOX6X6XXX:X>.i f *.f 7.k.z z OX+X&X+X&X&X&X=X6X6X6X6X6X6X6X6X6X6X6X6X6X6X6X6X6X6X6X6X6X6X6X6X6X",
"6X6X6X6X6X6X6X6X6X6X6X6X6X6X6X-X-X-X6X6X;X;XI.e a ;.a 2.r.) r x.0X+X+X*X&X6X:X6X6X6X6X6X6X6X6X6X6X6X6X6X6X6X6X6X6X6X6X6X6X6X6X6X",
"6X6X6X6X6X6X6X6X6X6X6X6X6X6X6X6X-X-X6X6X:X:X.Xg.i f j <.z h ) ) L.}.+X+X&X&XOX6X-X6X6X-X6X6X6X6X6X6X6X6X6X6X6X6X6X6X6X6X6X6X6X6X",
"6X6X6X6X6X6X6X6X6X6X6X6X6X6X6X6X6X-X&X+X0X:XXX.X=.p k l l ) i./ x.~.+X}.+X&X:X6X6X6X6X-X6X6X6X6X6X6X6X6X6X6X6X6X6X6X6X6X6X6X6X6X",
"6X6X6X6X6X6X6X6X6X6X6X6X6X6X6X6X-X-X#X&X:X*X;X$Xk.g l s h i.[ u. ./.+X*X6X6X+X+X6X-X6X6X6X6X6X6X6X6X6X6X6X6X6X6X6X6X6X6X6X6X6X6X",
"6X6X6X6X6X6X6X6X6X6X6X6X6X6X6X6X6X-X6X6X6X;X;X;X$Xy.x u u.u.{ } v.p.].$X@X;X+X+X-X-X6X6X:X&X6X6X6X6X6X6X6X6X6X6X6X6X6X6X6X6X6X6X",
"6X6X6X6X6X6X6X6X6X6X6X6X6X6X6X6X&X6X-X6X6X6X;X6X6XU.t u.[ T p.m.Y = u.'.&X&X+X}.&X&X6X6X&X:X&X6X6X6X6X6X6X6X6X6X6X6X6X6X6X6X6X6X",
"6X6X6X6X6X6X6X6X6X6X6X6X6X6X6X6X6X&X6X6X6X6X;X6X6X&Xx.5 | | ( = @ 4 ..S.].}.OX6X&X+X&X6X6X6X6X&X6X6X6X6X6X6X6X6X6X6X6X6X6X6X6X6X",
"6X6X6X6X6X6X6X6X6X6X6X6X6X6X6X6X-X6X6X6X6X6X;X6X$XOX+Xu y y O X = R { $.T.].#X6X&X:X&X6X6X-X6X&X6X6X6X6X6X6X6X6X6X6X6X6X6X6X6X6X",
"6X6X6X6X6X6X6X6X6X6X6X6X6X6X6X6X&X-X6X6X6X6X;X6X6X&X{.Q.#   X 4 U R n ` V.!.OX-X:X:X;X6X6X-X6X&X6X6X6X6X6X6X6X6X6X6X6X6X6X6X6X6X",
"6X6X6X6X6X6X6X6X6X6X6X6X6X6X6X&X6X&X6X6X6X6X;X6X6X&X[.+X/   > 4 y M S o.O.C.].&X:X$X:X;X-X-X6X6X6X6X6X6X6X6X6X6X6X6X6X6X6X6X6X6X",
"6X6X6X6X6X6X6X6X6X6X6X6X6X6X6X6X6X&X&X6X6X6X;X6XOXoX+X].+X5 X 4 8 N W ! _ %.W.~.6X:X:X:X6X&X6X-X6X6X6X6X6X6X6X6X6X6X6X6X6X6X6X6X",
"6X6X6X6X6X6X6X6X6X6X6X6X6X6X6X6X6X&X&X6X6X6X;X6X6X&X-XOX+XN.. , < Z ~ D X.X.M.^.+X:X:X:X6X6X6X6X6X6X6X6X6X6X6X6X6X6X6X6X6X6X6X6X",
"6X6X6X6X6X6X6X6X6X6X6X6X6X6X6X&X-X&X6X&X6X6X6X6X:X&X&X{.+X+Xx $ < C Z B I I o.Z.].;X:X$X:X&X#X#X-X6X6X6X6X6X6X6X6X6X6X6X6X6X6X6X",
"6X6X6X6X6X6X6X6X6X6X6X6X6X6X6X6X&X&X6X&X6X6X;X6X6XOX-X&X`.#XQ.> & 2 1 W K B J #.S.}.;X.X:X6X+X-X&X6X6X6X6X6X6X6X6X6X6X6X6X6X6X6X",
"6X6X6X6X6X6X6X6X6X6X6X6X6X6X6X&X&X+X6X6X6X6X6X6X6X=X&X+X+XOX+Xa.* 2 7 C _ _ D _ b.!.+X$X:X6X#X+X&X6X6X6X6X6X6X6X6X6X6X6X6X6X6X6X",
"6X6X6X6X6X6X6X6X6X6X6X6X6X6X6X6X-X&X&X&X6X6X;X6X=X6X6X#X6XOX`.+XT ; 6 9 Y ~ D J O.C.^.+X6X6X+X+X&X6X6X6X6X6X6X6X6X6X6X6X6X6X6X6X",
"6X6X6X6X6X6X6X6X6X6X6X6X6X6X6X&X&X&X&X6X&X6X6X6X6X=X6X=XoX6X[.#XT.4 % C C Y L D I ] Z.].-X6X&X&X6X6X6X6X6X6X6X6X6X6X6X6X6X6X6X6X",
"6X6X6X6X6X6X6X6X6X6X6X6X6X6X6X6X&X&X&X&X6X&X6X6X;X6X=X&XOX6X&XOX+XB.+ 8 W E ~ ! I P $.E.}.#X;X:X6X6X6X6X6X6X6X6X6X6X6X6X6X6X6X6X",
"6X6X6X6X6X6X6X6X6X6X6X6X6X6X6X6X&X&X&X&X&X6X;X6X=X6XoX6X6X@X#X6X[.+X( * C K K I I Q o.M.W.}.;X$X;X6X6X6X6X6X6X6X6X6X6X6X6X6X6X6X",
"6X6X6X6X6X6X6X6X6X6X6X6X6X6X6X6X&X&X&X&X6X6X6X6X6X@X6X6X6X=X6X&X&X}.].0 - 9 K H H _ J ` A.].$X;X6X6X6X6X6X6X6X6X6X6X6X6X6X6X6X6X",
"6X6X6X6X6X6X6X6X6X6X6X6X6X6X6X6X6X6X&X6X6X6X6X6X6X6X6X6X6X6X6X6X&X+X}.Y., : Y W K B B V +.~.+X#X6X6X6X6X6X6X6X6X6X6X6X6X6X6X6X6X",
"6X6X6X6X6X6X6X6X6X6X6X6X6X6X6X6X6X6X6X6X6X6X6X6X6X6X6X6X6X6X6X&X#X-X[.+Xu.o w 2 V b V P ' c.].].-X&X6X6X6X6X6X6X6X6X6X6X6X6X6X6X",
"6X6X6X6X6X6X6X6X6X6X6X6X6X6X6X6X6X6X6X6X6X6X6X6X6X6X6X6X6X6X6X6X&X&X-X-X`.T % 7 3 H A b W ' S.{.#X6X6X6X6X6X6X6X6X6X6X6X6X6X6X6X",
"6X6X6X6X6X6X6X6X6X6X6X6X6X6X6X6X6X6X6X6X6X6X6X6X6X6X6X6X6X6X6X6X&X&X-X{.#XR.* ; 2 S A v A E @.Q.+X6X6X6X6X6X6X6X6X6X6X6X6X6X6X6X",
"6X6X6X6X6X6X6X6X6X6X6X6X6X6X6X6X6X6X6X6X6X6X6X6X6X6X6X6X6X6X6X6X;X:X0X6X&X+Xa.+ 2 2 A ! b m D S.}.6X6X6X6X6X6X6X6X6X6X6X6X6X6X6X",
"6X6X6X6X6X6X6X6X6X6X6X6X6X6X6X6X6X6X6X6X6X6X6X6X6X6X6X6X6X6X6X6X;X;X=X6X6X{.}.U + 3 B _ m v G Z.}.6X6X6X6X6X6X6X6X6X6X6X6X6X6X6X",
"6X6X6X6X6X6X6X6X6X6X6X6X6X6X6X6X6X6X6X6X6X6X6X6X6X6X6X6X6X6X6X6X6X;X6XXX;XOX+XT.= : v n W G G D.+X6X6X6X6X6X6X6X6X6X6X6X6X6X6X6X",
"6X6X6X6X6X6X6X6X6X6X6X6X6X6X6X6X6X6X6X6X6X6X6X6X6X6X6X6X6X6X6X6X&XoX6X6X:XoX+X}.n.O - 7 ^ W Y W.+X6X6X6X6X6X6X6X6X6X6X6X6X6X6X6X",
"6X6X6X6X6X6X6X6X6X6X6X6X6X6X6X6X6X6X6X6X6X6X6X6X6X6X6X6X6X6X6X&X&X&X6X;X;X;X6X&X+X/ o 4 M q } `.+X6X6X6X6X6X6X6X6X6X6X6X6X6X6X6X",
"6X6X6X6X6X6X6X6X6X6X6X6X6X6X6X6X6X6X6X6X6X6X6X6X6X6X6X6X6X6X6X6X&X&X6X;X;X;X;X6X6X`.u.[ h T F.}.+X6X6X6X6X6X6X6X6X6X6X6X6X6X6X6X",
"6X6X6X6X6X6X6X6X6X6X6X6X6X6X6X6X6X6X6X6X6X6X6X6X6X6X6X6X6X6X6X&X&X&X&X&X:X:X:X;X-X6X#X#XOX+X+X}.6X6X6X6X6X6X6X6X6X6X6X6X6X6X6X6X",
"6X6X6X6X6X6X6X6X6X6X6X6X6X6X6X6X6X6X6X6X6X6X6X6X6X6X6X6X6X6X6X6X&X&X&X6X:X:X:X;X6X#X#X#X#X&X0X+X6X6X6X6X6X6X6X6X6X6X6X6X6X6X6X6X",
"6X6X6X6X6X6X6X6X6X6X6X6X6X6X6X6X6X6X6X6X6X6X6X6X6X6X6X6X6X6X6X6X&X&X+X:X:X$X:X&X@X-X6X#X6XoX+X0X&X6X6X6X6X6X6X6X6X6X6X6X6X6X6X6X",
"6X6X6X6X6X6X6X6X6X6X6X6X6X6X6X6X6X6X6X6X6X6X6X6X6X6X6X6X6X6X6X6X&X6X&X&X:X*X6X6X-X-X#X#X-X6X&X:X6X6X6X6X6X6X6X6X6X6X6X6X6X6X6X6X",
"6X6X6X6X6X6X6X6X6X6X6X6X6X6X6X6X6X6X6X6X6X6X6X6X6X6X6X6X6X6X6X6X6X6X&X:X:X*X&X&X-X#X-X-X-X6XqX&X6X6X6X6X6X6X6X6X6X6X6X6X6X6X6X6X",
"6X6X6X6X6X6X6X6X6X6X6X6X6X6X6X6X6X6X6X6X6X6X6X6X6X6X6X6X6X6X6X6X6X6X;X*X*X:X&X6X#X-X#X#X-X&X&X+X&X6X6X6X6X6X6X6X6X6X6X6X6X6X6X6X"
};
